<?xml version="1.0" standalone="no"?>
<!DOCTYPE svg PUBLIC "-//W3C//DTD SVG 1.1//EN" "http://www.w3.org/Graphics/SVG/1.1/DTD/svg11.dtd" >
<!--
2018-12-9: Created.
-->
<svg xmlns="http://www.w3.org/2000/svg">
<metadata>
Created by FontForge 20120731 at Sun Dec  9 12:33:13 2018
 By icons8

</metadata>
<defs>
<font id="font_icons8" horiz-adv-x="512" >
  <font-face 
    font-family="font_icons8"
    font-weight="500"
    font-stretch="normal"
    units-per-em="512"
    panose-1="2 0 6 3 0 0 0 0 0 0"
    ascent="448"
    descent="-64"
    bbox="-2.83301 -64.0063 514.833 448"
    underline-thickness="25.6"
    underline-position="-51.2"
    unicode-range="U+0020-F2EE"
  />
    <missing-glyph />
    <glyph glyph-name="space" unicode=" " horiz-adv-x="200" 
 />
    <glyph glyph-name="code" unicode="&#xf28d;" 
d="M106.667 384h298.666c23.5732 0 42.667 -19.0938 42.667 -42.667v-298.666c0 -23.5312 -19.1357 -42.667 -42.667 -42.667h-298.666c-23.5312 0 -42.667 19.1357 -42.667 42.667v298.666c0 23.5732 19.0938 42.667 42.667 42.667zM106.667 341.333v-42.666h298.666
v42.666h-298.666zM106.667 256v-213.333h298.666v213.333h-298.666zM213.333 217.75l21.334 -21.333l-47.084 -47.084l47.084 -47.083l-21.334 -21.333l-68.416 68.416zM298.667 217.75l68.416 -68.417l-68.416 -68.416l-21.334 21.333l47.084 47.083l-47.084 47.084z" />
    <glyph glyph-name="single-choice" unicode="&#xf1f8;" 
d="M128 405.333c35.3281 0 64 -28.6719 64 -64s-28.6719 -64 -64 -64s-64 28.6719 -64 64s28.6719 64 64 64zM234.667 362.667h213.333v-42.667h-213.333v42.667zM128 256c35.0938 0 64 -28.9062 64 -64s-28.9062 -64 -64 -64s-64 28.9062 -64 64s28.9062 64 64 64z
M128 213.333c-12.0352 0 -21.333 -9.29785 -21.333 -21.333s9.29785 -21.333 21.333 -21.333s21.333 9.29785 21.333 21.333s-9.29785 21.333 -21.333 21.333zM234.667 213.333h213.333v-42.666h-213.333v42.666zM128 106.667c35.0938 0 64 -28.9072 64 -64
c0 -35.0938 -28.9062 -64 -64 -64s-64 28.9062 -64 64c0 35.0928 28.9062 64 64 64zM128 64c-12.0352 0 -21.333 -9.29883 -21.333 -21.333c0 -12.0352 9.29785 -21.334 21.333 -21.334s21.333 9.29883 21.333 21.334c0 12.0342 -9.29785 21.333 -21.333 21.333zM234.667 64
h213.333v-42.667h-213.333v42.667z" />
    <glyph glyph-name="school-house" unicode="&#xf1d1;" 
d="M256.167 407.833l145.541 -74.166l-19.416 -38l-19.625 10v-87.875l125.5 -74.084l-21.667 -36.75l-18.5 10.917v-117.875h-170.667v64h-42.666v-64h-170.667v115.417l-18.333 -11.042l-22 36.583l44.708 26.917c2.82227 3.69238 8.83301 7.31348 13.417 8.08301
l67.541 40.709v91.291l-19.958 -9.79102l-18.75 38.333zM255.833 360.167l-63.833 -31.292v-86.5l63.875 38.458l64.125 -37.833v84.458zM256.125 231.167l-64.125 -38.625v-0.541992h-0.875l-84.458 -50.875v-98.458h85.333v64h128v-64h85.333v100.416l-82.875 48.917
h-2.45801v1.45801z" />
    <glyph glyph-name="student-registration" unicode="&#xf123;" 
d="M256 429.167l218.375 -109.167l-69.042 -34.5v-72.167v-24.125c11.9473 -10.0264 19.6367 -24.3018 20.917 -39.875h-43.083c-1.49316 4.2666 -4.70703 7.45996 -8.33398 9.16699l-12.166 5.75v49.083c0 11.7334 -9.60059 21.334 -21.334 21.334h-170.666
c-5.86719 0 -11.2168 -2.38379 -15.084 -6.25c-1.93262 -1.93359 -3.5 -4.24219 -4.58301 -6.79199s-1.66699 -5.3584 -1.66699 -8.29199v-49.083l-12.166 -5.75c-5.76074 -2.77344 -10.6699 -9.37305 -8.75 -18.333c1.49316 -6.82715 8.7627 -12.167 17.083 -12.167h25.167
v-21.333c0 -35.2002 38.1865 -64 85.333 -64c15.5732 0 30.0801 3.20312 42.667 8.75v-45.25c-13.4404 -4.05371 -27.5205 -6.16699 -42.667 -6.16699c-62.7197 0 -114.995 37.7568 -125.875 87.25c-21.5469 5.54688 -38.8066 22.4062 -43.5 44.167
c-4.69336 21.9727 3.40137 44.1377 20.042 57.791v24.125v72.167l-69.042 34.5zM256 381.5l-122.958 -61.5l16.291 -8.16699v-38.333c6.61328 2.55957 13.8672 3.83301 21.334 3.83301h170.666c7.4668 0 14.7207 -1.27344 21.334 -3.83301v38.333l16.291 8.16699z
M405.333 106.667h42.667v-64h64v-42.667h-64v-64h-42.667v64h-64v42.667h64v64z" />
    <glyph glyph-name="open-in-popup" unicode="&#xf21c;" 
d="M149.333 405.333h213.334c23.3184 0 42.666 -19.3477 42.666 -42.666v-341.334c0 -23.3184 -19.3477 -42.666 -42.666 -42.666h-42.667v42.666h42.667v256h-213.334v-256h42.667v-42.666h-42.667c-23.3184 0 -42.666 19.3477 -42.666 42.666v341.334
c0 23.3184 19.3477 42.666 42.666 42.666zM149.333 362.667v-42.667h213.334v42.667h-213.334zM256 170.667l64 -64h-42.667v-128h-42.666v128h-42.667z" />
    <glyph glyph-name="logout-rounded-up" unicode="&#xf20b;" 
d="M256 405.333c117.568 0 213.333 -95.7646 213.333 -213.333s-95.7646 -213.333 -213.333 -213.333s-213.333 95.7646 -213.333 213.333s95.7646 213.333 213.333 213.333zM256 362.667c-94.5098 0 -170.667 -76.1572 -170.667 -170.667
s76.1572 -170.667 170.667 -170.667s170.667 76.1572 170.667 170.667s-76.1572 170.667 -170.667 170.667zM256 362.667l85.333 -85.334h-64v-128h-42.666v128h-64z" />
    <glyph glyph-name="do-not-disturb" unicode="&#xf24d;" 
d="M256 405.333c117.632 0 213.333 -95.7012 213.333 -213.333s-95.7012 -213.333 -213.333 -213.333s-213.333 95.7012 -213.333 213.333s95.7012 213.333 213.333 213.333zM256 362.667c-94.1016 0 -170.667 -76.5654 -170.667 -170.667
s76.5654 -170.667 170.667 -170.667s170.667 76.5654 170.667 170.667s-76.5654 170.667 -170.667 170.667zM128 256h256v-128h-256v128zM170.667 213.333v-42.666h170.666v42.666h-170.666z" />
    <glyph glyph-name="send" unicode="&#xf14b;" 
d="M85.333 362.667h341.334c23.5303 0 42.666 -19.1367 42.666 -42.667v-174.333l-42.625 42.666l-0.0410156 88.875l-170.667 -106.541l-170.667 106.583v-213.25h170.667v-42.667h-170.667c-23.5303 0 -42.666 19.1367 -42.666 42.667v256
c0 23.5303 19.1357 42.667 42.666 42.667zM85.333 320v-0.0830078l170.667 -106.584l170.667 106.542v0.125h-341.334zM426.667 128l85.333 -85.333l-85.333 -85.334v64h-128v42.667h128v64z" />
    <glyph glyph-name="laptop-bug" unicode="&#xf29d;" 
d="M85.333 362.667h341.334c23.5303 0 42.666 -19.1367 42.666 -42.667v-149.333c-3.51953 10.9014 -14.3096 29.6221 -25.083 40.416c-4.30957 4.30957 -10.3936 8.78125 -17.583 12.792v96.125h-341.334v-213.333h128v-85.334h-213.333v42.667h85.333
c-23.5303 0 -42.666 19.1357 -42.666 42.667v213.333c0 23.5303 19.1357 42.667 42.666 42.667zM384.042 192c42.6875 0 42.625 -42.667 42.625 -42.667c6.77246 0 15.6162 -8.21484 23.541 -21.333h61.792v-42.667h-45.875
c1.37207 -6.81445 2.25293 -13.9326 2.66699 -21.333h43.208v-42.667h-44.792c-0.915039 -7.59766 -2.04199 -14.8193 -3.625 -21.333h48.417v-42.667h-69.625c-13.9111 -14.5303 -33.2852 -21.333 -58.375 -21.333h-1.75c-21.748 0 -40.2051 6.94922 -54.208 21.333
h-72.042v42.667h49.375c-1.79883 6.52734 -3.13184 13.748 -4.20801 21.333h-45.167v42.667h43.208c0.415039 7.40039 1.29199 14.5186 2.66699 21.333h-45.875v42.667h61.833c7.94238 13.1182 16.8018 21.333 23.584 21.333c0 0 -0.0849609 42.667 42.625 42.667z
M354.458 106.667c-5.46094 -8.91797 -13.125 -27.2822 -13.125 -50.792c0 -77.2266 29.7168 -77.208 40.917 -77.208h1.75c19.9893 0 42.667 -0.0185547 42.667 77.208c0 23.5098 -7.64355 41.874 -13.084 50.792h-29.458h-29.667z" />
    <glyph glyph-name="reddit-inbox" unicode="&#xf161;" 
d="M320 404.833h128c35.2002 0 64 -28.7783 64 -64c0 -35.1992 -28.7998 -64 -64 -64h-128c-35.2002 0 -64 28.8008 -64 64c0 35.2002 28.7998 64 64 64zM85.333 362.667h128v-42.667h-128v-39.208l118.459 -74c31.7227 -19.7979 72.7139 -19.8408 104.458 0l44.542 27.875
h80.5h36.041v-170.667c0 -23.5732 -19.0928 -42.667 -42.666 -42.667h-341.334c-23.5732 0 -42.666 19.0938 -42.666 42.667v256c0 23.5732 19.0928 42.667 42.666 42.667zM384 362.667c-11.7764 0 -21.333 -9.55762 -21.333 -21.334
c0 -11.7754 9.55664 -21.333 21.333 -21.333s21.333 9.55762 21.333 21.333c0 11.7764 -9.55664 21.334 -21.333 21.334zM448 362.667c-11.7764 0 -21.333 -9.55762 -21.333 -21.334c0 -11.7754 9.55664 -21.333 21.333 -21.333s21.333 9.55762 21.333 21.333
c0 11.7764 -9.55664 21.334 -21.333 21.334zM320 362.167c-11.7764 0 -21.333 -9.55762 -21.333 -21.334c0 -11.7754 9.55664 -21.333 21.333 -21.333s21.333 9.55762 21.333 21.333c0 11.7764 -9.55664 21.334 -21.333 21.334zM426.667 230.542l-95.834 -59.917
c-22.7412 -14.208 -48.7852 -21.292 -74.833 -21.292s-52.0918 7.06348 -74.833 21.25l-95.834 59.917v-166.5h341.334v166.542z" />
    <glyph glyph-name="presentation" unicode="&#xf17f;" 
d="M21.333 384h21.334h426.666h21.334v-42.667h-21.334v-234.666c0 -23.5732 -19.0928 -42.667 -42.666 -42.667h-149.334v-64h-42.666v64h-149.334c-23.5732 0 -42.666 19.0938 -42.666 42.667v234.666h-21.334v42.667zM85.333 341.333v-224
c0 -5.8877 4.7793 -10.666 10.667 -10.666h320c5.8877 0 10.667 4.77832 10.667 10.666v224h-341.334zM192 298.667v-64h64c-0.661133 -35.0088 -28.6504 -64 -64 -64s-64 28.6504 -64 64c0 35.3486 28.6504 64 64 64zM298.667 298.667h85.333v-42.667h-85.333v42.667z
M298.667 213.333h85.333v-42.666h-85.333v42.666z" />
    <glyph glyph-name="toggle-indeterminate" unicode="&#xf266;" 
d="M149.333 320h213.334c70.5918 0 128 -57.4082 128 -128s-57.4082 -128 -128 -128h-213.334c-70.5918 0 -128 57.4082 -128 128s57.4082 128 128 128zM149.333 277.333c-47.0605 0 -85.333 -38.2715 -85.333 -85.333s38.2725 -85.333 85.333 -85.333h213.334
c47.0605 0 85.333 38.2715 85.333 85.333s-38.2725 85.333 -85.333 85.333h-213.334zM256 256c35.3281 0 64 -28.6719 64 -64s-28.6719 -64 -64 -64s-64 28.6719 -64 64s28.6719 64 64 64z" />
    <glyph glyph-name="faq" unicode="&#xf1fc;" 
d="M85.333 405.333h213.334c23.3184 0 42.666 -19.3477 42.666 -42.666v-149.334h64c23.3193 0 42.667 -19.3477 42.667 -42.666v-149.334c0 -23.3184 -19.3477 -42.666 -42.667 -42.666h-213.333c-23.3184 0 -42.667 19.3477 -42.667 42.666v149.334h-64
c-23.3184 0 -42.666 19.3477 -42.666 42.666v149.334c0 23.3184 19.3477 42.666 42.666 42.666zM85.333 362.667v-149.334h213.334v149.334h-213.334zM179.667 341.333h24.583l73.083 -90.458v-16.208h-42.666v1.125l-16.334 20.208h-52.708l-16.292 -20.167v-1.16602
h-42.666v16.208zM192 288.625l-9.125 -11.292h18.25zM192 170.667v-149.334h213.333v149.334h-106.666h-106.667zM277.333 149.333h42.667c23.3184 0 42.667 -19.3477 42.667 -42.666v-33.834l15.083 -15.083l-30.167 -30.167l-15.083 15.084h-55.167
c-23.3184 0 -42.666 19.3477 -42.666 42.666v21.334c0 23.3184 19.3477 42.666 42.666 42.666zM277.333 106.667v-21.334h42.667v21.334h-42.667z" />
    <glyph glyph-name="account" unicode="&#xf199;" 
d="M149.333 384h106.667v-106.667l-38.25 38.25l-123.583 -123.583l-30.167 30.167l123.583 123.583zM384 384h64v-384h-64v384zM277.333 213.333h64v-213.333h-64v213.333zM170.667 128h64v-128h-64v128zM64 85.333h64v-85.333h-64v85.333z" />
    <glyph glyph-name="toggle-on" unicode="&#xf265;" 
d="M149.333 320h213.334c70.5918 0 128 -57.4082 128 -128s-57.4082 -128 -128 -128h-213.334c-70.5918 0 -128 57.4082 -128 128s57.4082 128 128 128zM149.333 277.333c-47.0605 0 -85.333 -38.2715 -85.333 -85.333s38.2725 -85.333 85.333 -85.333h213.334
c47.0605 0 85.333 38.2715 85.333 85.333s-38.2725 85.333 -85.333 85.333h-213.334zM362.667 256c35.3281 0 64 -28.6719 64 -64s-28.6719 -64 -64 -64s-64 28.6719 -64 64s28.6719 64 64 64z" />
    <glyph glyph-name="up-2" unicode="&#xf2ea;" 
d="M341.333 384l106.667 -106.667h-85.333v-42.666c0 -129.353 -105.314 -234.667 -234.667 -234.667h-64v42.667h64c106.295 0 192 85.7041 192 192v42.666h-85.333z" />
    <glyph glyph-name="up-3" unicode="&#xf2e9;" 
d="M170.667 384l106.666 -106.667h-85.333v-42.666c0 -106.296 85.7051 -192 192 -192h64v-42.667h-64c-129.353 0 -234.667 105.314 -234.667 234.667v42.666h-85.333z" />
    <glyph glyph-name="scroll-up" unicode="&#xf2d9;" 
d="M256 405.333c117.568 0 213.333 -95.7646 213.333 -213.333s-95.7646 -213.333 -213.333 -213.333s-213.333 95.7646 -213.333 213.333s95.7646 213.333 213.333 213.333zM256 362.667c-94.5098 0 -170.667 -76.1572 -170.667 -170.667
s76.1572 -170.667 170.667 -170.667s170.667 76.1572 170.667 170.667s-76.1572 170.667 -170.667 170.667zM256 298.667l85.333 -85.334h-64v-128h-42.666v128h-64z" />
    <glyph glyph-name="student-center" unicode="&#xf1cb;" 
d="M256 397.958l222.167 -101.208l-17.667 -38.833l-204.5 93.166l-204.5 -93.166l-17.667 38.833zM256 300.917l231.417 -108.917l-82.084 -38.625v-102.542l-149.333 -74.666l-149.333 74.666v102.542l-82.084 38.625l222.334 104.625zM256 253.75l-131.25 -61.75
l131.25 -61.75l131.25 61.75zM149.333 133.292v-56.125l106.667 -53.334l106.667 53.334v56.125l-106.667 -50.209z" />
    <glyph glyph-name="up-down-arrow" unicode="&#xf1ad;" 
d="M149.333 405.333l106.667 -106.666h-85.333v-128h-42.667v128h-85.333zM341.333 384h42.667v-42.667h-42.667v42.667zM341.333 298.667h42.667v-42.667h-42.667v42.667zM341.333 213.333h42.667v-128h85.333l-106.666 -106.666l-106.667 106.666h85.333v128zM128 128
h42.667v-42.667h-42.667v42.667zM128 42.667h42.667v-42.667h-42.667v42.667z" />
    <glyph glyph-name="pinch" unicode="&#xf25e;" 
d="M341.333 405.333h128v-128l-48.916 48.917l-24.417 -24.417c5.73535 -10.5488 9.33301 -22.4043 9.33301 -35.166c0 -40.9854 -33.6816 -74.667 -74.666 -74.667c-40.9854 0 -74.667 33.6816 -74.667 74.667c0 40.9844 33.6816 74.666 74.667 74.666
c12.7617 0 24.6172 -3.59766 35.166 -9.33301l24.417 24.417zM330.667 298.667c-17.9258 0 -32 -14.0742 -32 -32s14.0742 -32 32 -32s32 14.0742 32 32s-14.0742 32 -32 32zM181.333 192c40.9854 0 74.667 -33.6816 74.667 -74.667
c0 -40.9844 -33.6816 -74.666 -74.667 -74.666c-12.7617 0 -24.6172 3.59766 -35.166 9.33301l-24.417 -24.417l48.917 -48.916h-128v128l48.916 -48.917l24.417 24.417c-5.73535 10.5488 -9.33301 22.4043 -9.33301 35.166c0 40.9854 33.6816 74.667 74.666 74.667z
M181.333 149.333c-17.9258 0 -32 -14.0742 -32 -32s14.0742 -32 32 -32s32 14.0742 32 32s-14.0742 32 -32 32z" />
    <glyph glyph-name="user-manual" unicode="&#xf204;" 
d="M42.667 362.667h149.333c25.833 0 48.3086 -12.2939 64 -30.625c15.6914 18.3311 38.167 30.625 64 30.625h149.333v-298.667c0 -23.3184 -19.3477 -42.667 -42.666 -42.667h-140.542c-4.15723 -11.7578 -17.6533 -21.3154 -30.125 -21.333
c-12.4717 0.0175781 -25.9678 9.5752 -30.125 21.333h-140.542c-23.3184 0 -42.666 19.3486 -42.666 42.667v298.667zM85.333 320v-256h341.334v256h-106.667c-23.8223 0 -42.667 -18.8447 -42.667 -42.667h-42.666c0 23.8223 -18.8447 42.667 -42.667 42.667h-106.667z
M320 256h42.667v-42.667h-42.667v42.667zM320 192h42.667v-85.333h-42.667v85.333z" />
    <glyph glyph-name="leave" unicode="&#xf1e4;" 
d="M128 426.667h42.667v-42.667h170.666v42.667h42.667v-42.667h21.333c23.4668 0 42.667 -19.2002 42.667 -42.667v-298.666c0 -23.4668 -19.2002 -42.667 -42.667 -42.667h-85.333v42.667h85.333v213.333h-298.666v-213.333h85.333v-42.667h-85.333
c-23.4668 0 -42.667 19.2002 -42.667 42.667v298.666c0 23.4668 19.2002 42.667 42.667 42.667h21.333v42.667zM106.667 341.333v-42.666h298.666v42.666h-21.333h-42.667h-170.666h-42.667h-21.333zM234.667 213.333h42.666v-128h-42.666v128zM234.667 42.667h42.666
v-42.667h-42.666v42.667z" />
    <glyph glyph-name="adjust" unicode="&#xf1ee;" 
d="M85.333 405.333h42.667v-42.666h21.333c11.7764 0 21.334 -9.55762 21.334 -21.334v-21.333c0 -11.7764 -9.55762 -21.333 -21.334 -21.333h-85.333c-11.7764 0 -21.333 9.55664 -21.333 21.333v21.333c0 11.7764 9.55664 21.334 21.333 21.334h21.333v42.666z
M234.667 405.333h42.666v-277.333h21.334c11.7754 0 21.333 -9.55762 21.333 -21.333v-21.334c0 -11.7754 -9.55762 -21.333 -21.333 -21.333h-85.334c-11.7754 0 -21.333 9.55762 -21.333 21.333v21.334c0 11.7754 9.55762 21.333 21.333 21.333h21.334v277.333z
M384 405.333h42.667v-149.333h21.333c11.7764 0 21.333 -9.55762 21.333 -21.333v-21.334c0 -11.7754 -9.55664 -21.333 -21.333 -21.333h-85.333c-11.7764 0 -21.334 9.55762 -21.334 21.333v21.334c0 11.7754 9.55762 21.333 21.334 21.333h21.333v149.333zM85.333 256
h42.667v-277.333h-42.667v277.333zM384 149.333h42.667v-170.666h-42.667v170.666zM234.667 21.333h42.666v-42.666h-42.666v42.666z" />
    <glyph glyph-name="chevron-down" unicode="&#xf2bf;" 
d="M448 170.667l-192 -128l-192 128v149.333l192 -128l192 128v-149.333zM106.667 193.493l149.333 -99.5625l149.333 99.5625v46.7842l-149.333 -99.5625l-149.333 99.5625v-46.7842z" />
    <glyph glyph-name="helping-hand" unicode="&#xf14a;" 
d="M343.708 413.458l151.667 -170.875l-108.625 -101.666c-0.707031 -0.68457 -1.93945 -1.69238 -2.75 -2.25v-74.667c0 -35.0928 -28.9072 -64 -64 -64h-140.5l-31.583 -31.583l-133.792 160.5l118.958 125.166c0.448242 0.462891 1.21289 1.17285 1.70898 1.58398
l15.791 38.916c7.26758 17.9355 21.8955 31.8721 40.125 38.292l0.416992 0.166992l86.375 26.541zM338.958 354.542l-41 -33.292l-93.083 -28.625c-6.72949 -2.37012 -12.0762 -7.48535 -14.75 -14.083l-33.958 -83.584l5.125 -1.79102
c9.71484 -3.43555 20.0674 0.731445 24.75 9.95801l24.708 52.875h109.25c33.7666 0 60.5127 -27.2979 62.583 -60.583l53.292 49.916zM237.917 213.333l-13.667 -29.208l-0.166992 -0.333008c-14.2188 -28.0225 -47.377 -41.3076 -77 -30.834l-38.375 13.542l-37.5 -39.417
l79.542 -95.5l11.083 11.084h158.167c12.0537 0 21.333 9.2793 21.333 21.333v128c0 12.0537 -9.2793 21.333 -21.333 21.333h-82.083z" />
    <glyph glyph-name="web-design" unicode="&#xf292;" 
d="M106.667 384h298.666c23.3193 0 42.667 -19.3477 42.667 -42.667v-298.666c0 -23.3193 -19.3477 -42.667 -42.667 -42.667h-298.666c-23.3193 0 -42.667 19.3477 -42.667 42.667v298.666c0 23.3193 19.3477 42.667 42.667 42.667zM106.667 341.333v-85.333h298.666
v85.333h-298.666zM149.333 320c11.7764 0 21.334 -9.55762 21.334 -21.333c0 -11.7764 -9.55762 -21.334 -21.334 -21.334c-11.7754 0 -21.333 9.55762 -21.333 21.334c0 11.7754 9.55762 21.333 21.333 21.333zM213.333 320c11.7764 0 21.334 -9.55762 21.334 -21.333
c0 -11.7764 -9.55762 -21.334 -21.334 -21.334c-11.7754 0 -21.333 9.55762 -21.333 21.334c0 11.7754 9.55762 21.333 21.333 21.333zM277.333 320h85.334v-42.667h-85.334v42.667zM106.667 213.333v-170.666h64v170.666h-64zM213.333 213.333v-170.666h192v170.666h-192z
M256 192h106.667v-42.667h-106.667v42.667zM256 128h106.667v-42.667h-106.667v42.667z" />
    <glyph glyph-name="checked-checkbox" unicode="&#xf1f1;" 
d="M106.667 384h298.666c23.3193 0 42.667 -19.3477 42.667 -42.667v-298.666c0 -23.3193 -19.3477 -42.667 -42.667 -42.667h-298.666c-23.3193 0 -42.667 19.3477 -42.667 42.667v298.666c0 23.3193 19.3477 42.667 42.667 42.667zM106.667 341.333v-298.666h298.666
v298.666h-298.666zM347.583 271.083l30.167 -30.166l-164.417 -164.417l-79.083 79.083l30.167 30.167l48.916 -48.917z" />
    <glyph glyph-name="fold" unicode="&#xf133;" 
d="M347.833 426.333c18.1289 2.08301 36.167 -12.4912 36.167 -31.666v-294.875c0 -17.3838 -10.6865 -33.1924 -26.875 -39.625l2.625 1.25l-108.792 -61.417h-165.625c-23.3184 0 -42.666 19.3477 -42.666 42.667v277.333c0 23.3184 19.3477 42.667 42.666 42.667h153.959
l99.125 61.041l1.70801 0.666992c2.54199 1.01172 5.11816 1.66113 7.70801 1.95801zM448 384c11.7764 0 21.333 -9.55762 21.333 -21.333c0 -11.7764 -9.55664 -21.334 -21.333 -21.334s-21.333 9.55762 -21.333 21.334c0 11.7754 9.55664 21.333 21.333 21.333z
M341.333 375.417l-89.958 -55.417h-166.042v-277.333h154.375l100.334 56.625l1.29102 0.5v0.0410156v275.584zM448 298.667c11.7764 0 21.333 -9.55762 21.333 -21.334c0 -11.7754 -9.55664 -21.333 -21.333 -21.333s-21.333 9.55762 -21.333 21.333
c0 11.7764 9.55664 21.334 21.333 21.334zM213.333 256h85.334v-42.667h-85.334v-64h42.667l-64 -64l-64 64h42.667v64c0 23.3193 19.3477 42.667 42.666 42.667zM448 213.333c11.7764 0 21.333 -9.55664 21.333 -21.333s-9.55664 -21.333 -21.333 -21.333
s-21.333 9.55664 -21.333 21.333s9.55664 21.333 21.333 21.333zM448 128c11.7764 0 21.333 -9.55762 21.333 -21.333c0 -11.7764 -9.55664 -21.334 -21.333 -21.334s-21.333 9.55762 -21.333 21.334c0 11.7754 9.55664 21.333 21.333 21.333zM362.667 42.667
c11.7754 0 21.333 -9.55762 21.333 -21.334c0 -11.7754 -9.55762 -21.333 -21.333 -21.333c-11.7764 0 -21.334 9.55762 -21.334 21.333c0 11.7764 9.55762 21.334 21.334 21.334zM448 42.667c11.7764 0 21.333 -9.55762 21.333 -21.334
c0 -11.7754 -9.55664 -21.333 -21.333 -21.333s-21.333 9.55762 -21.333 21.333c0 11.7764 9.55664 21.334 21.333 21.334z" />
    <glyph glyph-name="doughnut-chart" unicode="&#xf195;" 
d="M256 405.333c117.568 0 213.333 -95.7646 213.333 -213.333s-95.7646 -213.333 -213.333 -213.333s-213.333 95.7646 -213.333 213.333s95.7646 213.333 213.333 213.333zM234.667 361.208c-84.3574 -10.4639 -149.334 -81.9404 -149.334 -169.208
c0 -94.5098 76.1572 -170.667 170.667 -170.667c39.5234 0 75.748 13.4238 104.625 35.834l-45.958 46c-16.8682 -11.1982 -37.0215 -17.834 -58.667 -17.834c-58.6572 0 -106.667 48.0088 -106.667 106.667c0 51.3535 36.8086 94.54 85.334 104.5v64.708zM277.333 361.208
v-64.708c41.624 -8.54297 74.624 -41.543 83.167 -83.167h64.708c-9.59473 77.3564 -70.5186 138.28 -147.875 147.875zM256 256c-35.5986 0 -64 -28.4014 -64 -64s28.4014 -64 64 -64s64 28.4014 64 64s-28.4014 64 -64 64zM360.5 170.667
c-2.78125 -13.5518 -8.24707 -26.1572 -15.667 -37.334l46 -45.958c18.3037 23.585 30.5049 52.0869 34.375 83.292h-64.708z" />
    <glyph glyph-name="upward-arrow" unicode="&#xf2cf;" 
d="M256 405.333c117.824 0 213.333 -95.5088 213.333 -213.333s-95.5088 -213.333 -213.333 -213.333s-213.333 95.5088 -213.333 213.333s95.5088 213.333 213.333 213.333zM256 362.667c-94.251 0 -170.667 -76.416 -170.667 -170.667s76.416 -170.667 170.667 -170.667
s170.667 76.416 170.667 170.667s-76.416 170.667 -170.667 170.667zM256 307.5l100.417 -100.417l-30.167 -30.166l-48.917 48.916v-140.5h-42.666v140.5l-48.917 -48.916l-30.167 30.166z" />
    <glyph glyph-name="index" unicode="&#xf183;" 
d="M64 384h21.333h341.334h21.333v-42.667h-21.333h-341.334h-21.333v42.667zM106.667 298.667h42.666c23.5312 0 42.667 -19.1367 42.667 -42.667v-42.667c0 -23.5303 -19.1357 -42.666 -42.667 -42.666h-42.666c-23.5312 0 -42.667 19.1357 -42.667 42.666v42.667
c0 23.5303 19.1357 42.667 42.667 42.667zM234.667 298.667h21.333h170.667h21.333v-42.667h-21.333h-170.667h-21.333v42.667zM106.667 256v-42.667h42.666v42.667h-42.666zM234.667 213.333h21.333h106.667h21.333v-42.666h-21.333h-106.667h-21.333v42.666zM106.667 128
h42.666c23.5312 0 42.667 -19.1357 42.667 -42.667v-42.666c0 -23.5312 -19.1357 -42.667 -42.667 -42.667h-42.666c-23.5312 0 -42.667 19.1357 -42.667 42.667v42.666c0 23.5312 19.1357 42.667 42.667 42.667zM234.667 128h21.333h170.667h21.333v-42.667h-21.333
h-170.667h-21.333v42.667zM106.667 85.333v-42.666h42.666v42.666h-42.666zM234.667 42.667h21.333h106.667h21.333v-42.667h-21.333h-106.667h-21.333v42.667z" />
    <glyph glyph-name="tree-structure" unicode="&#xf18e;" 
d="M341.333 384h85.334c11.7744 -0.000976562 21.332 -9.55859 21.333 -21.333v-85.334c-0.000976562 -11.7744 -9.55859 -21.332 -21.333 -21.333h-85.334c-11.7744 0.000976562 -21.332 9.55859 -21.333 21.333v1.29199l-113.917 -86.542l113.917 -85.416
c0.000976562 11.7744 9.55859 21.332 21.333 21.333h85.334c11.7744 -0.000976562 21.332 -9.55859 21.333 -21.333v-85.334c-0.000976562 -11.7744 -9.55859 -21.332 -21.333 -21.333h-85.334c-11.7744 0.000976562 -21.332 9.55859 -21.333 21.333v32l-128 96
c-0.000976562 -11.7744 -9.55859 -21.332 -21.333 -21.333h-85.334c-11.7744 0.000976562 -21.332 9.55859 -21.333 21.333v85.334c0.000976562 11.7744 9.55859 21.332 21.333 21.333h85.334c11.5938 0 21.1504 -9.4082 21.333 -21l128 97.208v30.459
c0.000976562 11.7744 9.55859 21.332 21.333 21.333zM362.667 341.333v-42.666h42.666v42.666h-42.666zM106.667 213.333v-42.666h42.666v21.791v20.875h-42.666zM362.667 85.333v-42.666h42.666v42.666h-42.666z" />
    <glyph glyph-name="hide" unicode="&#xf253;" 
d="M89.75 388.417l362.667 -362.667l-30.167 -30.167l-54.5 54.5c-30.7432 -17.0068 -67.668 -28.75 -111.75 -28.75c-161.536 0 -230.121 155.615 -232.958 162.25l-3.58398 8.41699l3.58398 8.41699c1.72266 4.03809 28.4824 63.2539 85.375 109l-48.834 48.833z
M256 362.667c161.536 0 230.121 -155.615 232.958 -162.25l3.58398 -8.41699l-3.58398 -8.41699c-1.38672 -3.2207 -18.5762 -41.9238 -54.416 -80.708l-30.417 30.417c21.5254 23.4668 35.2695 46.7803 41.542 58.791c-15.4248 30.0381 -74.5527 127.917 -189.667 127.917
c-12.3945 0 -24.0107 -1.34668 -35.125 -3.45801l-35.125 35.125c21.1836 6.71973 44.415 11 70.25 11zM138.917 278.917c-39.9248 -30.6572 -63.7168 -70.0195 -72.584 -87c15.4248 -30.0381 74.5527 -127.917 189.667 -127.917c30.4707 0 57.0527 7.01367 79.958 17.875
l-36.791 36.792c-12.6406 -7.56445 -27.3564 -12 -43.167 -12c-47.0615 0 -85.333 38.2715 -85.333 85.333c0 15.8105 4.43555 30.5264 12 43.167zM260.542 276.875c43.3701 -2.3252 78.0078 -36.9629 80.333 -80.333zM214.917 202.917
c-0.939453 -3.49414 -1.58398 -7.12109 -1.58398 -10.917c0 -23.5303 19.1367 -42.667 42.667 -42.667c3.7959 0 7.42285 0.644531 10.917 1.58398z" />
    <glyph glyph-name="important-note" unicode="&#xf121;" 
d="M234.667 405.333h42.666v-21.333h106.667c23.5303 0 42.667 -19.1357 42.667 -42.667v-320c0 -23.5303 -19.1367 -42.666 -42.667 -42.666h-256c-23.5303 0 -42.667 19.1357 -42.667 42.666v320c0 23.5312 19.1367 42.667 42.667 42.667h106.667v21.333zM128 341.333
v-320.041l256 0.0410156v320h-106.667v-21.333h-42.666v21.333h-106.667zM234.667 277.333h42.666v-128h-42.666v128zM234.667 106.667h42.666v-42.667h-42.666v42.667z" />
    <glyph glyph-name="circled-up-left" unicode="&#xf2d0;" 
d="M256 405.333c54.5977 0 109.18 -20.8467 150.833 -62.5c83.3066 -83.3066 83.3066 -218.359 0 -301.666s-218.359 -83.3066 -301.666 0s-83.3066 218.359 0 301.666c41.6533 41.6533 96.2354 62.5 150.833 62.5zM256 362.667c-43.6797 0 -87.3438 -16.6777 -120.667 -50
c-66.6445 -66.6455 -66.6445 -174.688 0 -241.334c66.6455 -66.6455 174.688 -66.6455 241.334 0s66.6455 174.688 0 241.334c-33.3232 33.3223 -76.9873 50 -120.667 50zM170.667 277.333h149.333v-42.666h-76.5l97.833 -97.834l-30.166 -30.166l-97.834 97.833v-76.5
h-42.666v149.333z" />
    <glyph glyph-name="zoom-out" unicode="&#xf26c;" 
d="M192 405.333c82.2217 0 149.333 -67.1113 149.333 -149.333c0 -37.291 -13.9082 -71.3604 -36.666 -97.583l9.08301 -9.08398h27.583l128 -128l-42.666 -42.666l-128 128v27.583l-9.08398 9.08301c-26.2227 -22.7578 -60.292 -36.666 -97.583 -36.666
c-82.2217 0 -149.333 67.1113 -149.333 149.333s67.1113 149.333 149.333 149.333zM192 362.667c-59.1631 0 -106.667 -47.5039 -106.667 -106.667s47.5039 -106.667 106.667 -106.667s106.667 47.5039 106.667 106.667s-47.5039 106.667 -106.667 106.667zM128 277.333h128
v-42.666h-128v42.666z" />
    <glyph glyph-name="brief" unicode="&#xf12d;" 
d="M128 405.333h170.667l128 -128v-256c0 -23.3438 -19.3232 -42.666 -42.667 -42.666h-256c-23.3438 0 -42.667 19.3223 -42.667 42.666v341.334c0 23.3438 19.3232 42.666 42.667 42.666zM128 362.667v-341.334h256v234.667h-106.667v106.667h-149.333zM170.667 213.333
h42.666v-42.666h-42.666v42.666zM256 213.333h85.333v-42.666h-85.333v42.666zM170.667 128h42.666v-42.667h-42.666v42.667zM256 128h85.333v-42.667h-85.333v42.667z" />
    <glyph glyph-name="add-to-clipboard" unicode="&#xf171;" 
d="M256 426.667c27.8184 0 51.2725 -17.8564 60.083 -42.667h89.25c23.5732 0 42.667 -19.0938 42.667 -42.667v-155.625c-13.5254 4.03223 -27.8398 6.29199 -42.667 6.29199v149.333h-42.666v-21.333c0 -11.7764 -9.55762 -21.333 -21.334 -21.333h-170.666
c-11.7764 0 -21.334 9.55664 -21.334 21.333v21.333h-42.666v-298.666h149.333c0 -14.8271 2.25977 -29.1416 6.29199 -42.667h-155.625c-23.5732 0 -42.667 19.0938 -42.667 42.667v298.666c0 23.5732 19.0938 42.667 42.667 42.667h89.25
c8.81055 24.8105 32.2646 42.667 60.083 42.667zM256 384c-11.7764 0 -21.333 -9.55762 -21.333 -21.333c0 -8.83203 5.38574 -16.4268 13.041 -19.667l8.29199 -1.66699l8.29199 1.66699c7.65527 3.24023 13.041 10.835 13.041 19.667
c0 11.7754 -9.55664 21.333 -21.333 21.333zM405.333 149.333c58.9014 0 106.667 -47.7646 106.667 -106.666s-47.7656 -106.667 -106.667 -106.667s-106.666 47.7656 -106.666 106.667s47.7646 106.666 106.666 106.666zM384 106.667v-42.667h-42.667v-42.667h42.667
v-42.666h42.667v42.666h42.666v42.667h-42.666v42.667h-42.667z" />
    <glyph glyph-name="descending-sorting" unicode="&#xf1aa;" 
d="M64 384h234.667v-42.667h-234.667v42.667zM362.667 384h42.666v-298.667h64l-85.333 -85.333l-85.333 85.333h64v298.667zM64 298.667h192v-42.667h-192v42.667zM64 213.333h149.333v-42.666h-149.333v42.666zM64 128h106.667v-42.667h-106.667v42.667zM64 42.667h64
v-42.667h-64v42.667z" />
    <glyph glyph-name="permanent-job" unicode="&#xf142;" 
d="M234.667 384h213.333c23.5303 0 42.667 -19.1357 42.667 -42.667v-341.333h-213.334v42.667h170.667v298.666h-213.333v-149.333c0 34.7734 -16.8965 65.377 -42.667 84.833v64.5c0 23.5312 19.1357 42.667 42.667 42.667zM277.333 298.667h42.667v-42.667h-42.667
v42.667zM362.667 298.667h42.666v-42.667h-42.666v42.667zM128 256c35.8828 0 64 -28.0957 64 -64s-28.1172 -64 -64 -64s-64 28.0957 -64 64s28.1172 64 64 64zM128 213.333c-12.373 0 -21.333 -8.98145 -21.333 -21.333s8.95996 -21.333 21.333 -21.333
s21.333 8.98145 21.333 21.333s-8.95996 21.333 -21.333 21.333zM277.333 213.333h42.667v-42.666h-42.667v42.666zM362.667 213.333h42.666v-42.666h-42.666v42.666zM277.333 128h42.667v-42.667h-42.667v42.667zM362.667 128h42.666v-42.667h-42.666v42.667zM128 106.667
c60.8213 0 106.667 -31.0566 106.667 -72.209v-34.458h-213.334v34.458c0 41.1523 45.8457 72.209 106.667 72.209zM128 64c-31.3389 0 -53.1094 -10.752 -60.875 -21.333h121.75c-7.76562 10.5811 -29.5361 21.333 -60.875 21.333z" />
    <glyph glyph-name="up-squared" unicode="&#xf2dc;" 
d="M106.667 384h298.666c23.3193 0 42.667 -19.3477 42.667 -42.667v-298.666c0 -23.3193 -19.3477 -42.667 -42.667 -42.667h-298.666c-23.3193 0 -42.667 19.3477 -42.667 42.667v298.666c0 23.3193 19.3477 42.667 42.667 42.667zM106.667 341.333v-298.666h298.666
v298.666h-298.666zM256 264.833l106.583 -106.583l-30.166 -30.167l-76.417 76.417l-76.25 -76.25l-30.167 30.167z" />
    <glyph glyph-name="rising-edge" unicode="&#xf194;" 
d="M64 384h42.667v-341.333h170.666v128h-64l85.334 85.333l85.333 -85.333h-64v-128h128v-42.667h-341.333c-23.3193 0 -42.667 19.3477 -42.667 42.667v341.333zM149.333 341.333h42.667v-42.666h-42.667v42.666zM234.667 341.333h42.666v-42.666h-42.666v42.666z
M320 341.333h42.667v-42.666h-42.667v42.666zM405.333 341.333h42.667v-42.666h-42.667v42.666z" />
    <glyph glyph-name="guardian" unicode="&#xf1de;" 
d="M181.333 362.667c40.9854 0 74.667 -33.6826 74.667 -74.667s-33.6816 -74.667 -74.667 -74.667c-40.9844 0 -74.666 33.6826 -74.666 74.667s33.6816 74.667 74.666 74.667zM181.333 320c-17.9258 0 -32 -14.0742 -32 -32s14.0742 -32 32 -32s32 14.0742 32 32
s-14.0742 32 -32 32zM362.667 298.667c35.0928 0 64 -28.9072 64 -64c0 -35.0938 -28.9072 -64 -64 -64c-35.0938 0 -64 28.9062 -64 64c0 35.0928 28.9062 64 64 64zM362.667 256c-12.0352 0 -21.334 -9.29883 -21.334 -21.333c0 -12.0352 9.29883 -21.334 21.334 -21.334
c12.0342 0 21.333 9.29883 21.333 21.334c0 12.0342 -9.29883 21.333 -21.333 21.333zM181.333 170.667c51.2686 0 95.4912 -17.542 122.625 -30.875c17.2148 5.42773 37.0977 9.54102 58.709 9.54102c47.1357 0 86.7041 -19.2354 106.125 -30.166h0.0410156
c12.9844 -7.33398 21.834 -21.3506 21.834 -36.625v-61.209h-224h-32h-213.334v73.25c0 15.2275 8.28809 29.6904 21.75 37.209v-0.0419922c23.0146 12.8906 75.8242 38.917 138.25 38.917zM181.333 128c-50.126 0 -97.7324 -22.4453 -117.333 -33.417v-30.583h170.667
v18.542c0 13.0098 6.62207 24.834 16.583 32.666c-20.6865 7.0166 -44.7432 12.792 -69.917 12.792zM362.667 106.667c-35.041 0 -69.2842 -15.709 -85.167 -24.667l-0.0419922 -0.0419922c-0.146484 -0.0820312 -0.0664062 -0.015625 -0.125 -0.0410156v-17.917h170.667
v17.958c-0.0644531 0.0273438 -0.000976562 -0.0517578 -0.166992 0.0419922c-15.916 8.9541 -50.1436 24.667 -85.166 24.667z" />
    <glyph glyph-name="answers" unicode="&#xf1ff;" 
d="M192 384h213.333c23.3193 0 42.667 -19.3477 42.667 -42.667v-298.666c0 -23.3193 -19.3477 -42.667 -42.667 -42.667h-213.333c-23.3184 0 -42.667 19.3477 -42.667 42.667v298.666c0 23.3193 19.3486 42.667 42.667 42.667zM64 362.667h42.667v-341.334h-42.667
v341.334zM192 341.333v-298.666h213.333v298.666h-213.333zM277.333 298.667h42.667v-128h-42.667v128zM277.333 128h42.667v-42.667h-42.667v42.667z" />
    <glyph glyph-name="login-rounded-up" unicode="&#xf20a;" 
d="M256 405.333c117.568 0 213.333 -95.7646 213.333 -213.333c0 -110.361 -84.4082 -201.49 -192 -212.25v-1.08301h-21.333h-21.333v1.08301c-107.592 10.7598 -192 101.889 -192 212.25c0 117.568 95.7646 213.333 213.333 213.333zM256 362.667
c-94.5098 0 -170.667 -76.1572 -170.667 -170.667c0 -87.2676 64.9766 -158.744 149.334 -169.208v105.208h-64l85.333 85.333l85.333 -85.333h-64v-105.208c84.3574 10.4639 149.334 81.9404 149.334 169.208c0 94.5098 -76.1572 170.667 -170.667 170.667z" />
    <glyph glyph-name="b2b" unicode="&#xf163;" 
d="M277.333 405.333h85.334v-21.333h42.666c23.5732 0 42.667 -19.0938 42.667 -42.667v-128c0 -23.5303 -19.1357 -42.666 -42.667 -42.666h-42.666v42.666h42.666v42.667h-64c0 -11.7764 -9.55664 -21.333 -21.333 -21.333s-21.333 9.55664 -21.333 21.333h-21.334
h-42.666h-42.667v85.333c0 23.5732 19.0938 42.667 42.667 42.667h42.666v21.333zM85.333 362.667l64 -42.667l-64 -42.667v85.334zM234.667 341.333v-42.666h170.666v42.666h-170.666zM149.333 213.333h85.334v-21.333h42.666c23.5732 0 42.667 -19.0938 42.667 -42.667
v-128c0 -23.5303 -19.1357 -42.666 -42.667 -42.666h-170.666c-23.5312 0 -42.667 19.1357 -42.667 42.666v128c0 23.5732 19.0938 42.667 42.667 42.667h42.666v21.333zM106.667 149.333v-42.666h170.666v42.666h-170.666zM426.667 106.667v-85.334l-64 42.667zM106.667 64
v-42.667h170.666v42.667h-64c0 -11.7764 -9.55664 -21.333 -21.333 -21.333s-21.333 9.55664 -21.333 21.333h-64z" />
    <glyph glyph-name="wait" unicode="&#xf233;" 
d="M266.667 384c29.4395 0 53.333 -23.8936 53.333 -53.333c0 -29.4404 -23.8936 -53.334 -53.333 -53.334c-29.4404 0 -53.334 23.8936 -53.334 53.334c0 29.4395 23.8936 53.333 53.334 53.333zM128 320c23.5518 0 42.667 -19.1143 42.667 -42.667
c0 -23.5518 -19.1152 -42.666 -42.667 -42.666s-42.667 19.1143 -42.667 42.666c0 23.5527 19.1152 42.667 42.667 42.667zM384 298.667c11.7764 0 21.333 -9.55762 21.333 -21.334c0 -11.7754 -9.55664 -21.333 -21.333 -21.333s-21.333 9.55762 -21.333 21.333
c0 11.7764 9.55664 21.334 21.333 21.334zM96 192c17.6641 0 32 -14.3359 32 -32s-14.3359 -32 -32 -32s-32 14.3359 -32 32s14.3359 32 32 32zM426.667 192c11.7754 0 21.333 -9.55762 21.333 -21.333c0 -11.7764 -9.55762 -21.334 -21.333 -21.334
c-11.7764 0 -21.334 9.55762 -21.334 21.334c0 11.7754 9.55762 21.333 21.334 21.333zM160 85.333c17.6641 0 32 -14.3359 32 -32s-14.3359 -32 -32 -32s-32 14.3359 -32 32s14.3359 32 32 32zM384 85.333c11.7764 0 21.333 -9.55664 21.333 -21.333
s-9.55664 -21.333 -21.333 -21.333s-21.333 9.55664 -21.333 21.333s9.55664 21.333 21.333 21.333zM266.667 64c17.6641 0 32 -14.3359 32 -32s-14.3359 -32 -32 -32s-32 14.3359 -32 32s14.3359 32 32 32z" />
    <glyph glyph-name="database-symbol" unicode="&#xf115;" 
d="M128 405.333h256c23.5732 0 42.667 -19.0928 42.667 -42.666v-213.334h-42.667v85.334h-256v-85.334h213.333v-42.666h-213.333v-85.334h149.333v-42.666h-149.333c-23.5732 0 -42.667 19.0928 -42.667 42.666v341.334c0 23.5732 19.0938 42.666 42.667 42.666z
M128 362.667v-85.334h256v85.334h-256zM384 106.667h42.667v-64h64v-42.667h-64v-64h-42.667v64h-64v42.667h64v64z" />
    <glyph glyph-name="zoom-in" unicode="&#xf26b;" 
d="M192 405.333c82.2217 0 149.333 -67.1113 149.333 -149.333c0 -37.291 -13.9082 -71.3604 -36.666 -97.583l9.08301 -9.08398h27.583l128 -128l-42.666 -42.666l-128 128v27.583l-9.08398 9.08301c-26.2227 -22.7578 -60.292 -36.666 -97.583 -36.666
c-82.2217 0 -149.333 67.1113 -149.333 149.333s67.1113 149.333 149.333 149.333zM192 362.667c-59.1631 0 -106.667 -47.5039 -106.667 -106.667s47.5039 -106.667 106.667 -106.667s106.667 47.5039 106.667 106.667s-47.5039 106.667 -106.667 106.667zM170.667 320
h42.666v-42.667h42.667v-42.666h-42.667v-42.667h-42.666v42.667h-42.667v42.666h42.667v42.667z" />
    <glyph glyph-name="study" unicode="&#xf166;" 
d="M42.667 362.667h170.666c16.4697 0 31.3174 -6.40625 42.667 -16.625c11.3496 10.2188 26.1973 16.625 42.667 16.625h170.666v-298.667c0 -23.5732 -19.0928 -42.667 -42.666 -42.667h-133.917c-7.38672 -12.7061 -20.9854 -21.333 -36.75 -21.333
s-29.3633 8.62695 -36.75 21.333h-133.917c-23.5732 0 -42.666 19.0938 -42.666 42.667v298.667zM85.333 320v-256h149.334v234.667c0 11.7539 -9.5791 21.333 -21.334 21.333h-128zM298.667 320c-11.7549 0 -21.334 -9.5791 -21.334 -21.333v-234.667h149.334v256h-128z
M128 277.333h64v-42.666h-64v42.666zM320 277.333h64v-42.666h-64v42.666zM128 213.333h64v-42.666h-64v42.666zM320 213.333h64v-42.666h-64v42.666zM128 149.333h64v-42.666h-64v42.666z" />
    <glyph glyph-name="bot" unicode="&#xf29b;" 
d="M256 405.333c23.5518 0 42.667 -19.1143 42.667 -42.666c-0.0244141 -13.5703 -9.58203 -30.0908 -21.334 -36.875v-48.459h64c46.877 0 85.334 -38.4561 85.334 -85.333v-85.333h42.666v-42.667h-42.666v-42.667c0 -23.3184 -19.3486 -42.666 -42.667 -42.666h-256
c-23.3184 0 -42.667 19.3477 -42.667 42.666v42.667h-42.666v42.667h42.666v85.333c0 46.877 38.457 85.333 85.334 85.333h64v48.417c-11.7656 6.79297 -21.3232 23.3311 -21.334 36.917c0 23.5518 19.1152 42.666 42.667 42.666zM170.667 234.667
c-23.8223 0 -42.667 -18.8447 -42.667 -42.667v-170.667h64v42.667h128v-42.667h64v170.667c0 23.8223 -18.8447 42.667 -42.667 42.667h-64h-42.666h-64zM202.667 170.667c17.6641 0 32 -14.3359 32 -32s-14.3359 -32 -32 -32s-32 14.3359 -32 32s14.3359 32 32 32z
M309.333 170.667c17.6641 0 32 -14.3359 32 -32s-14.3359 -32 -32 -32s-32 14.3359 -32 32s14.3359 32 32 32z" />
    <glyph glyph-name="send-job-list" unicode="&#xf13e;" 
d="M128 405.333h256c23.4668 0 42.667 -19.1992 42.667 -42.666v-213.334h-42.667v213.334h-256v-341.334h170.667v-42.666h-170.667c-23.5732 0 -42.667 19.0928 -42.667 42.666v341.334c0 23.5732 19.0938 42.666 42.667 42.666zM213.333 320h85.334v-21.333h21.333
c11.7764 0 21.333 -9.55762 21.333 -21.334v-85.333v-21.333c0 -11.7764 -9.55664 -21.334 -21.333 -21.334h-128c-11.7764 0 -21.333 9.55762 -21.333 21.334v21.333v42.667v21.333v21.333c0 11.7764 9.55664 21.334 21.333 21.334h21.333v21.333zM213.333 234.667v-42.667
h85.334v42.667h-21.334v-21.334h-42.666v21.334h-21.334zM426.667 106.667l85.333 -85.334l-85.333 -85.333v64h-85.334v42.667h85.334v64z" />
    <glyph glyph-name="time-management-2" unicode="&#xf10c;" 
d="M277.333 405.333h192v-42.666h-21.333v-40.834l-44.5 -44.5l44.5 -44.5v-40.833h21.333v-42.667h-192v42.667h21.334v40.833l44.5 44.5l-44.5 44.5v40.834h-21.334v42.666zM234.667 403.917v-43.209c-55.7021 -9.19434 -99.8311 -54.124 -106.167 -111.916
l-1.08301 -9.875l-5.33398 -8.375l-25.625 -40.167l5.125 -2.16699l26.084 -11v-91.875h85.333v-64h106.667v16.209c0 29.0127 4.57715 51.0771 11.041 69.125h46.209c-8.44824 -16.6826 -14.584 -37.4023 -14.584 -69.125v-58.875h-192v64h-42.666
c-23.5732 0 -42.667 19.0928 -42.667 42.666v63.542l-30.417 12.833c-11.1143 4.67188 -15.3398 18.2412 -8.83301 28.417l40.375 63.375c8.57617 78.4639 70.3975 140.795 148.542 150.417zM341.333 362.667v-23.167l32 -32l32 32v23.167h-64zM373.333 247.167l-32 -32
v-23.167h64v23.167z" />
    <glyph glyph-name="certificate-2" unicode="&#xf1c0;" 
d="M256 405.333c4.22363 0 8.46582 -1.59277 11.708 -4.75l32.084 -31.041l44.25 6.25c0.810547 0.106445 1.58496 0.166016 2.375 0.166016c8.04199 0 15.1533 -5.78711 16.583 -13.958l7.70801 -44l39.459 -20.917c8.04199 -4.2666 11.2393 -14.1211 7.25 -22.291
l-19.625 -40.125l19.625 -40.125c3.98926 -8.1709 0.791992 -18.0254 -7.25 -22.292l-32.084 -17l112.584 -112.583l-64 -21.334l-21.334 -64l-124.291 124.292l-13.334 -12.875c-3.26367 -3.15723 -7.48438 -4.75 -11.708 -4.75s-8.46582 1.59277 -11.708 4.75
l-13.334 12.875l-124.291 -124.292l-21.334 64l-64 21.334l112.584 112.583l-32.084 17c-8.04199 4.2666 -11.2393 14.1211 -7.25 22.292l19.625 40.125l-19.625 40.125c-3.98926 8.16992 -0.791992 18.0244 7.25 22.291l39.417 20.917l7.75 44
c1.42969 8.1709 8.51953 13.958 16.583 13.958c0.790039 0 1.56445 -0.0380859 2.375 -0.166016l44.209 -6.25l32.125 31.041c3.26367 3.15723 7.48438 4.75 11.708 4.75zM256 352.583l-14.125 -13.708l-15 -14.5l-20.625 2.91699l-19.5 2.75l-3.41699 -19.375
l-3.625 -20.542l-18.416 -9.79199l-17.417 -9.25l8.625 -17.666l9.16699 -18.75l-9.16699 -18.75l-8.625 -17.667l17.417 -9.25l18.375 -9.79199l3.625 -20.541l3.41602 -19.375l19.459 2.75l20.666 2.91602l15 -14.5l14.167 -13.708l14.125 13.708l15 14.542
l20.625 -2.95801l19.5 -2.75l3.41699 19.416l3.625 20.542l18.416 9.75l17.417 9.25l-8.625 17.667l-9.16699 18.75l9.16699 18.75l8.66699 17.666l-17.417 9.25l-18.417 9.79199l-3.625 20.542l-3.41602 19.375l-19.459 -2.75l-20.666 -2.91699l-15 14.5zM148.583 109.583
l-48.291 -48.291l18.75 -6.25l6.25 -18.75l59.666 59.666l-17 -2.41602c-0.810547 -0.107422 -1.58496 -0.166992 -2.375 -0.166992c-8.04199 0 -15.1533 5.78809 -16.583 13.958zM363.417 109.583l-0.416992 -2.25c-1.42969 -8.16992 -8.51953 -13.958 -16.583 -13.958
c-0.790039 0 -1.58594 0.0595703 -2.375 0.166992l-17 2.41602l59.666 -59.666l6.25 18.75l18.75 6.25z" />
    <glyph glyph-name="tasks" unicode="&#xf12c;" 
d="M85.333 362.667h341.334c23.3184 0 42.666 -19.3486 42.666 -42.667v-256c0 -23.3184 -19.3477 -42.667 -42.666 -42.667h-341.334c-23.3184 0 -42.666 19.3486 -42.666 42.667v256c0 23.3184 19.3477 42.667 42.666 42.667zM85.333 320v-21.333h85.334v-42.667h-85.334
v-42.667h298.667v-42.666h-298.667v-42.667h213.334v-42.667h-213.334v-21.333h341.334v256h-341.334z" />
    <glyph glyph-name="go-back" unicode="&#xf2cc;" 
d="M256 405.333c117.568 0 213.333 -95.7646 213.333 -213.333s-95.7646 -213.333 -213.333 -213.333s-213.333 95.7646 -213.333 213.333s95.7646 213.333 213.333 213.333zM256 362.667c-94.5098 0 -170.667 -76.1572 -170.667 -170.667
s76.1572 -170.667 170.667 -170.667s170.667 76.1572 170.667 170.667s-76.1572 170.667 -170.667 170.667zM234.667 277.333v-64h128v-42.666h-128v-64l-85.334 85.333z" />
    <glyph glyph-name="unverified-account" unicode="&#xf255;" 
d="M192.042 405.125c7.66895 0.389648 15.4424 -0.583008 23 -3.04199l40.958 -13.208l41 13.25c30.0371 9.74902 64.2461 -4.40234 78.625 -32.583l19.625 -38.334l38.333 -19.583c28.8857 -14.7412 42.5469 -47.8184 32.542 -78.667l-13.25 -40.958l13.25 -40.958
c10.0049 -30.8057 -3.67773 -63.9043 -32.542 -78.667l-38.375 -19.583l-19.583 -38.334c-11.2852 -22.0801 -33.6689 -35.791 -58.458 -35.791c-6.87012 0 -13.6592 1.07422 -20.209 3.20801l-40.958 13.25l-41 -13.292c-30.0156 -9.77051 -64.2246 4.42285 -78.625 32.625
l-19.625 38.334l-38.333 19.541c-28.8857 14.7627 -42.5469 47.8408 -32.542 78.667l13.25 41l-13.25 40.958c-9.98438 30.8271 3.69824 63.9258 32.583 78.667l38.334 19.583l19.583 38.334c10.7842 21.1357 32.6572 34.415 55.667 35.583zM193.75 362.625
c-8.08789 -0.392578 -15.6309 -5.1084 -19.375 -12.5l-22.75 -44.5c-2.02637 -3.98926 -5.28223 -7.20215 -9.25 -9.25l-44.5 -22.75c-10.1123 -5.16309 -14.915 -16.7471 -11.417 -27.542l15.375 -47.541c1.38672 -4.2666 1.38672 -8.8584 0 -13.125l-15.375 -47.5
c-3.49805 -10.7949 1.32617 -22.3789 11.417 -27.542l44.5 -22.75c3.98926 -2.04785 7.24414 -5.30273 9.29199 -9.29199l22.708 -44.5c5.01367 -9.83398 16.9189 -14.8721 27.5 -11.416l47.542 15.416c2.13281 0.725586 4.36426 1.04199 6.58301 1.04199
s4.4502 -0.337891 6.58301 -1.04199l47.542 -15.375c10.752 -3.51953 22.4863 1.58203 27.5 11.417l22.75 44.5c2.04785 3.98926 5.26074 7.20215 9.25 9.25l44.542 22.75c10.1113 5.16309 14.873 16.7471 11.375 27.542l-13.25 40.958l-2.125 6.58301
c-1.38672 4.2666 -1.38672 8.8584 0 13.125l15.375 47.5c3.49805 10.7949 -1.28418 22.3789 -11.375 27.542l-44.542 22.75c-3.98926 2.04785 -7.20215 5.30273 -9.25 9.29199l-22.75 44.5c-5.01367 9.85547 -16.9199 14.8721 -27.458 11.416l-47.542 -15.416
c-4.28809 -1.38672 -8.91992 -1.38672 -13.208 0l-47.5 15.375c-2.69922 0.890625 -5.4707 1.21387 -8.16699 1.08301zM256 298.667c42.0264 0 64 -32.1924 64 -64c0 -28.6514 -16.2012 -47.2646 -28.042 -60.875c-9.06641 -10.4111 -14.625 -17.1836 -14.625 -24.459
h-42.666c0 23.6162 13.9043 39.5742 25.083 52.417c10.9014 12.5439 17.583 20.8633 17.583 32.917c0 4.99121 -1.53613 21.333 -21.333 21.333c-20.7363 0 -21.333 -19.1357 -21.333 -21.333h-42.667c0 31.0186 22.4424 64 64 64zM234.667 128h42.666v-42.667h-42.666
v42.667z" />
    <glyph glyph-name="course-assign" unicode="&#xf124;" 
d="M256 405.333h170.667c11.7334 0 21.333 -9.59961 21.333 -21.333v-161.708c-13.4404 5.33301 -27.7334 9.16309 -42.667 11.083v43.958h-85.333v42.667h85.333v42.667h-128v-165.542c-17.2793 -13.8672 -32 -31.165 -42.666 -50.792v67h-85.334v42.667h85.334v42.667
h-128v-256h107.958c1.91992 -14.9336 5.75 -29.2266 11.083 -42.667h-140.375c-11.7334 0 -21.333 9.59961 -21.333 21.333v298.667c0 11.7334 9.59961 21.333 21.333 21.333h149.334v42.667c0 11.7334 9.59961 21.333 21.333 21.333zM384 192
c70.4395 0 128 -57.5605 128 -128s-57.5605 -128 -128 -128s-128 57.5605 -128 128s57.5605 128 128 128zM384 149.333c-47.3809 0 -85.333 -37.9521 -85.333 -85.333s37.9521 -85.333 85.333 -85.333s85.333 37.9521 85.333 85.333
c0 10.1104 -2.02832 19.6504 -5.20801 28.625l-80.125 -80.125l-57.75 57.75l30.167 30.167l27.583 -27.584l55.583 55.584c-14.9287 12.873 -34.167 20.916 -55.583 20.916zM149.333 128h76.375c-5.33301 -13.4404 -9.16309 -27.7334 -11.083 -42.667h-65.292v42.667z" />
    <glyph glyph-name="graduation-scroll" unicode="&#xf1d2;" 
d="M85.333 341.333h341.334c12.376 0 23.417 -5.88281 31.333 -13.416c7.91602 -7.53418 13.6553 -16.8486 18.333 -27.375c9.35742 -21.0527 14.334 -47.4707 14.334 -76.542s-4.97656 -55.4893 -14.334 -76.542c-4.67773 -10.5264 -10.417 -19.8408 -18.333 -27.375
c-7.91602 -7.5332 -18.957 -13.416 -31.333 -13.416h-119.167l70.25 -70.25l-30.167 -30.167l-70.25 70.25v-119.167h-42.666v149.334h-149.334c-12.377 0 -23.416 5.88184 -31.333 13.416c-7.91699 7.53516 -13.6553 16.8486 -18.333 27.375
c-9.35547 21.0537 -14.334 47.4746 -14.334 76.542s4.97852 55.4883 14.334 76.542c4.67773 10.5264 10.416 19.8398 18.333 27.375c7.91699 7.53418 18.9561 13.416 31.333 13.416zM85.333 298.667c0.59082 0 0.376953 0.514648 -1.91602 -1.66699
s-5.70801 -6.94531 -8.75 -13.792c-6.08496 -13.6924 -10.667 -35.2627 -10.667 -59.208s4.58203 -45.5156 10.667 -59.208c3.04199 -6.84668 6.45703 -11.6104 8.75 -13.792c2.29297 -2.18262 2.50684 -1.66699 1.91602 -1.66699h120.292
c-8.85352 20.7539 -13.625 46.415 -13.625 74.667s4.77148 53.9131 13.625 74.667h-120.292zM256 298.667c0.589844 0 0.375977 0.514648 -1.91699 -1.66699s-5.70703 -6.94531 -8.75 -13.792c-6.08398 -13.6924 -10.666 -35.2627 -10.666 -59.208
s4.58203 -45.5156 10.666 -59.208c3.04297 -6.84668 6.45703 -11.6104 8.75 -13.792c2.29297 -2.18262 2.50684 -1.66699 1.91699 -1.66699h120.292c-8.85449 20.7529 -13.625 46.4111 -13.625 74.667s4.77051 53.9141 13.625 74.667h-120.292zM426.667 298.667
c0.59375 0 0.375977 0.515625 -1.91699 -1.66699s-5.70703 -6.94531 -8.75 -13.792c-6.08594 -13.6924 -10.667 -35.2607 -10.667 -59.208s4.58105 -45.5156 10.667 -59.208c3.04297 -6.84668 6.45703 -11.6104 8.75 -13.792
c2.29297 -2.18262 2.51074 -1.66699 1.91699 -1.66699c-0.594727 0 -0.376953 -0.515625 1.91602 1.66699s5.70801 6.94531 8.75 13.792c6.08594 13.6924 10.667 35.2607 10.667 59.208s-4.58105 45.5156 -10.667 59.208c-3.04199 6.84668 -6.45605 11.6094 -8.75 13.792
c-2.29297 2.18262 -2.51074 1.66699 -1.91602 1.66699z" />
    <glyph glyph-name="active-state" unicode="&#xf23c;" 
d="M256 -21.333c-117.632 0 -213.333 95.7012 -213.333 213.333s95.7012 213.333 213.333 213.333s213.333 -95.7012 213.333 -213.333s-95.7012 -213.333 -213.333 -213.333zM256 362.667c-94.1016 0 -170.667 -76.5654 -170.667 -170.667
s76.5654 -170.667 170.667 -170.667s170.667 76.5654 170.667 170.667s-76.5654 170.667 -170.667 170.667z" />
    <glyph glyph-name="apply" unicode="&#xf287;" 
d="M256 384c47.0615 0 85.333 -38.2725 85.333 -85.333c0 -47.0615 -38.2715 -85.334 -85.333 -85.334s-85.333 38.2725 -85.333 85.334c0 47.0605 38.2715 85.333 85.333 85.333zM256 341.333c-23.5303 0 -42.667 -19.1357 -42.667 -42.666
c0 -23.5312 19.1367 -42.667 42.667 -42.667s42.667 19.1357 42.667 42.667c0 23.5303 -19.1367 42.666 -42.667 42.666zM384 192c70.4395 0 128 -57.5605 128 -128s-57.5605 -128 -128 -128c-47.1396 0 -88.4131 25.834 -110.625 64h-209.375v53.333
c0 48.4697 73.7393 78.6211 137.292 90.375l54.708 -54.708l3.29199 3.29199c12.9736 56.9033 64.002 99.708 124.708 99.708zM384 149.333c-47.3809 0 -85.333 -37.9521 -85.333 -85.333s37.9521 -85.333 85.333 -85.333s85.333 37.9521 85.333 85.333
c0 10.1104 -2.02832 19.6504 -5.20801 28.625l-80.125 -80.125l-57.75 57.75l30.167 30.167l27.583 -27.584l55.583 55.584c-14.9287 12.873 -34.167 20.916 -55.583 20.916zM187.583 97.083c-53.2051 -13.333 -80.916 -34.5977 -80.916 -43.75v-10.666h135.333
l-16.167 16.166z" />
    <glyph glyph-name="unit" unicode="&#xf130;" 
d="M96 384h64c17.4307 0 32 -14.5693 32 -32v-10.667h128v10.667c0 17.4307 14.5693 32 32 32h64c17.4307 0 32 -14.5693 32 -32v-64c0 -17.4307 -14.5693 -32 -32 -32h-10.667v-128h10.667c17.4307 0 32 -14.5693 32 -32v-64c0 -17.4307 -14.5693 -32 -32 -32h-64
c-17.4307 0 -32 14.5693 -32 32v10.667h-128v-21.334c0 -11.7754 -9.55762 -21.333 -21.333 -21.333h-85.334c-11.7754 0 -21.333 9.55762 -21.333 21.333v85.334c0 11.7754 9.55762 21.333 21.333 21.333h21.334v128h-10.667c-17.4307 0 -32 14.5693 -32 32v64
c0 17.4307 14.5693 32 32 32zM106.667 341.333v-42.666h42.666v42.666h-42.666zM362.667 341.333v-42.666h42.666v42.666h-42.666zM192 298.667v-10.667c0 -17.4307 -14.5693 -32 -32 -32h-10.667v-128h21.334c11.7754 0 21.333 -9.55762 21.333 -21.333v-21.334h128v10.667
c0 17.4307 14.5693 32 32 32h10.667v128h-10.667c-17.4307 0 -32 14.5693 -32 32v10.667h-128zM362.667 85.333v-42.666h42.666v42.666h-42.666z" />
    <glyph glyph-name="attendance" unicode="&#xf1cd;" 
d="M313.75 377.75l48.917 -48.917l48.916 48.917l30.167 -30.167l-48.917 -48.916l48.917 -48.917l-30.167 -30.167l-48.916 48.917l-48.917 -48.917l-30.167 30.167l48.917 48.917l-48.917 48.916zM85.333 320h128v-42.667h-128v42.667zM432.917 143.083l30.166 -30.166
l-100.416 -100.417l-79.084 79.083l30.167 30.167l48.917 -48.917zM85.333 85.333h128v-42.666h-128v42.666z" />
    <glyph glyph-name="video-interview" unicode="&#xf153;" 
d="M64 384h384c23.5732 0 42.667 -19.0938 42.667 -42.667v-256c0 -23.5732 -19.0938 -42.666 -42.667 -42.666h-106.667v-42.667h-170.666v42.667h-106.667c-23.5732 0 -42.667 19.0928 -42.667 42.666v256c0 23.5732 19.0938 42.667 42.667 42.667zM64 341.333v-256h384
v256h-384zM106.667 298.667h85.333v-64h-85.333v64zM320 298.667c23.5518 0 42.667 -19.1152 42.667 -42.667s-19.1152 -42.667 -42.667 -42.667s-42.667 19.1152 -42.667 42.667s19.1152 42.667 42.667 42.667zM106.667 192h85.333v-64h-85.333v64zM320 192
c46.6133 0 85.333 -19.3877 85.333 -47.292v-16.708h-170.666v16.708c0 27.9043 38.7197 47.292 85.333 47.292z" />
    <glyph glyph-name="certificate" unicode="&#xf1bf;" 
d="M256 405.333c4.22363 0 8.46582 -1.59277 11.708 -4.75l32.084 -31.041l44.25 6.25c0.810547 0.106445 1.58496 0.166016 2.375 0.166016c8.04199 0 15.1533 -5.78711 16.583 -13.958l7.70801 -44l39.459 -20.917c8.04199 -4.2666 11.2393 -14.1211 7.25 -22.291
l-19.625 -40.125l19.625 -40.125c3.98926 -8.1709 0.791992 -18.0254 -7.25 -22.292l-32.084 -17l112.584 -112.583l-64 -21.334l-21.334 -64l-124.291 124.292l-13.334 -12.875c-3.26367 -3.15723 -7.48438 -4.75 -11.708 -4.75s-8.46582 1.59277 -11.708 4.75
l-13.334 12.875l-124.291 -124.292l-21.334 64l-64 21.334l112.584 112.583l-32.084 17c-8.04199 4.2666 -11.2393 14.1211 -7.25 22.292l19.625 40.125l-19.625 40.125c-3.98926 8.16992 -0.791992 18.0244 7.25 22.291l39.417 20.917l7.75 44
c1.42969 8.1709 8.51953 13.958 16.583 13.958c0.790039 0 1.56445 -0.0380859 2.375 -0.166016l44.209 -6.25l32.125 31.041c3.26367 3.15723 7.48438 4.75 11.708 4.75zM256 352.583l-14.125 -13.708l-15 -14.5l-20.625 2.91699l-19.5 2.75l-3.41699 -19.375
l-3.625 -20.542l-18.416 -9.79199l-17.417 -9.25l8.625 -17.666l9.16699 -18.75l-9.16699 -18.75l-8.625 -17.667l17.417 -9.25l18.375 -9.79199l3.625 -20.541l3.41602 -19.375l19.459 2.75l20.666 2.91602l15 -14.5l14.167 -13.708l14.125 13.708l15 14.542
l20.625 -2.95801l19.5 -2.75l3.41699 19.416l3.625 20.542l18.416 9.75l17.417 9.25l-8.625 17.667l-9.16699 18.75l9.16699 18.75l8.66699 17.666l-17.417 9.25l-18.417 9.79199l-3.625 20.542l-3.41602 19.375l-19.459 -2.75l-20.666 -2.91699l-15 14.5zM148.583 109.583
l-48.291 -48.291l18.75 -6.25l6.25 -18.75l59.666 59.666l-17 -2.41602c-0.810547 -0.107422 -1.58496 -0.166992 -2.375 -0.166992c-8.04199 0 -15.1533 5.78809 -16.583 13.958zM363.417 109.583l-0.416992 -2.25c-1.42969 -8.16992 -8.51953 -13.958 -16.583 -13.958
c-0.790039 0 -1.58594 0.0595703 -2.375 0.166992l-17 2.41602l59.666 -59.666l6.25 18.75l18.75 6.25z" />
    <glyph glyph-name="prev" unicode="&#xf2dd;" 
d="M106.667 384h298.666c23.3193 0 42.667 -19.3477 42.667 -42.667v-298.666c0 -23.3193 -19.3477 -42.667 -42.667 -42.667h-298.666c-23.3193 0 -42.667 19.3477 -42.667 42.667v298.666c0 23.3193 19.3477 42.667 42.667 42.667zM106.667 341.333v-298.666h298.666
v298.666h-298.666zM289.75 298.583l30.167 -30.166l-76.417 -76.417l76.25 -76.25l-30.167 -30.167l-106.416 106.417z" />
    <glyph glyph-name="today" unicode="&#xf1e2;" 
d="M128 405.333h42.667v-42.666h170.666v42.666h42.667v-42.666h21.333c23.5312 0 42.667 -19.1367 42.667 -42.667v-298.667c0 -23.5303 -19.1357 -42.666 -42.667 -42.666h-298.666c-23.5312 0 -42.667 19.1357 -42.667 42.666v298.667
c0 23.5303 19.1357 42.667 42.667 42.667h21.333v42.666zM106.667 320v-42.667h298.666v42.667h-298.666zM106.667 234.667v-213.334h298.708l-0.0419922 213.334h-298.666zM315.75 206.917l29.833 -29.834l-100.25 -100.291l-68.25 68.291l29.834 29.834l38.416 -38.375z
" />
    <glyph glyph-name="sort" unicode="&#xf2e2;" 
d="M256 384l170.667 -170.667h-341.334zM256 323.667l-67.667 -67.667h135.334zM85.333 170.667h341.334l-170.667 -170.667zM188.333 128l67.667 -67.667l67.667 67.667h-135.334z" />
    <glyph glyph-name="right-2" unicode="&#xf2ec;" 
d="M341.333 384l106.667 -106.667l-106.667 -106.666v85.333h-42.666c-106.296 0 -192 -85.7051 -192 -192v-64h-42.667v64c0 129.353 105.314 234.667 234.667 234.667h42.666v85.333z" />
    <glyph glyph-name="hashtag-large" unicode="&#xf185;" 
d="M106.667 384h128v-42.667h42.666v42.667h128v-42.667h42.667v-106.666v-21.334h-42.667v-42.666h42.667v-128h-42.667v-42.667h-128v42.667h-42.666v-42.667h-128v42.667h-42.667v128h42.667v42.666h-42.667v128h42.667v42.667zM149.333 341.333v-42.666h-42.666v-42.667
h42.666v-128h-42.666v-42.667h42.666v-42.666h42.667v42.666h128v-42.666h42.667v42.666h42.666v42.667h-42.666v128h42.666v42.667h-42.666v42.666h-42.667v-42.666h-128v42.666h-42.667zM192 256h128v-106.667v-21.333h-128v128zM234.667 213.333v-42.666h42.666v42.666
h-42.666z" />
    <glyph glyph-name="data-recovery" unicode="&#xf1a4;" 
d="M128 405.333h256c23.5732 0 42.667 -19.0928 42.667 -42.666v-128h-21.334h-21.333h-256v-85.334h170.667v-42.666h-170.667v-85.334h170.667v-42.666h-170.667c-23.5732 0 -42.667 19.0928 -42.667 42.666v341.334c0 23.5732 19.0938 42.666 42.667 42.666zM128 362.667
v-85.334h256v85.334h-256zM405.333 192c35.0928 0 64 -28.9072 64 -64v-128c0 -35.0928 -28.9072 -64 -64 -64s-64 28.9072 -64 64v128c0 35.0928 28.9072 64 64 64zM405.333 149.333c-12.0537 0 -21.333 -9.2793 -21.333 -21.333v-42.667h42.667v42.667
c0 12.0537 -9.2793 21.333 -21.334 21.333zM384 42.667v-42.667c0 -12.0537 9.2793 -21.333 21.333 -21.333c12.0547 0 21.334 9.2793 21.334 21.333v42.667h-42.667z" />
    <glyph glyph-name="vertical-timeline" unicode="&#xf193;" 
d="M64 384h384v-42.667h-42.667v-42.666h-42.666v42.666h-85.334v-85.333h-42.666v85.333h-85.334v-128h-42.666v128h-42.667v42.667zM341.333 256h85.334v-85.333h-21.334v-128h42.667v-42.667h-384v42.667h42.667v42.666h-21.334v85.334h85.334v-85.334h-21.334v-42.666
h85.334v85.333h-21.334v85.333h85.334v-85.333h-21.334v-85.333h85.334v128h-21.334v85.333z" />
    <glyph glyph-name="add-row" unicode="&#xf1b0;" 
d="M85.333 298.667h341.334c23.3184 0 42.666 -19.3486 42.666 -42.667v-128c0 -23.3184 -19.3477 -42.667 -42.666 -42.667h-42.667v42.667h42.667v128h-341.334v-128h42.667v-42.667h-42.667c-23.3184 0 -42.666 19.3486 -42.666 42.667v128
c0 23.3184 19.3477 42.667 42.666 42.667zM234.667 192h42.666v-64h64v-42.667h-64v-64h-42.666v64h-64v42.667h64v64z" />
    <glyph glyph-name="doctors-bag" unicode="&#xf179;" 
d="M192 384h128v-21.333h106.667c23.3184 0 42.666 -19.3486 42.666 -42.667v-256c0 -23.3184 -19.3477 -42.667 -42.666 -42.667h-341.334c-23.3184 0 -42.666 19.3486 -42.666 42.667v256c0 23.3184 19.3477 42.667 42.666 42.667h106.667v21.333zM85.333 320v-256
h341.334v256h-341.334zM234.667 277.333h42.666v-64h64v-42.666h-64v-64h-42.666v64h-64v42.666h64v64z" />
    <glyph glyph-name="brochure" unicode="&#xf11f;" 
d="M170.667 405.333h170.666c23.3193 0 42.667 -19.3477 42.667 -42.666v-42.667h42.667c23.5732 0 42.666 -19.0938 42.666 -42.667v-192c0 -23.5732 -19.0928 -42.666 -42.666 -42.666h-42.667v-21.334c0 -23.3184 -19.3477 -42.666 -42.667 -42.666h-170.666
c-23.3193 0 -42.667 19.3477 -42.667 42.666v21.334h-42.667c-23.5732 0 -42.666 19.0928 -42.666 42.666v192c0 23.5732 19.0928 42.667 42.666 42.667h42.667v42.667c0 23.3184 19.3477 42.666 42.667 42.666zM170.667 362.667v-341.334h170.666v341.334h-170.666z
M213.333 320h85.334v-42.667h-85.334v42.667zM85.333 277.333v-192h42.667v192h-42.667zM384 277.333v-192h42.667v192h-42.667zM213.333 234.667h85.334v-42.667h-85.334v42.667zM213.333 170.667h85.334v-42.667h-85.334v42.667zM213.333 106.667h85.334v-42.667h-85.334
v42.667z" />
    <glyph glyph-name="ascending-sorting" unicode="&#xf1ab;" 
d="M64 384h64v-42.667h-64v42.667zM362.667 384h42.666v-298.667h64l-85.333 -85.333l-85.333 85.333h64v298.667zM64 298.667h106.667v-42.667h-106.667v42.667zM64 213.333h149.333v-42.666h-149.333v42.666zM64 128h192v-42.667h-192v42.667zM64 42.667h234.667v-42.667
h-234.667v42.667z" />
    <glyph glyph-name="circled-down-left-2" unicode="&#xf2d8;" 
d="M256 405.333c117.568 0 213.333 -95.7646 213.333 -213.333s-95.7646 -213.333 -213.333 -213.333s-213.333 95.7646 -213.333 213.333s95.7646 213.333 213.333 213.333zM256 362.667c-94.5098 0 -170.667 -76.1572 -170.667 -170.667
s76.1572 -170.667 170.667 -170.667s170.667 76.1572 170.667 170.667s-76.1572 170.667 -170.667 170.667zM309.5 275.667l30.167 -30.167l-93.584 -93.583l45.25 -45.25h-120.666v120.666l45.25 -45.25z" />
    <glyph glyph-name="customer" unicode="&#xf27b;" 
d="M256 405.333l21.333 -32.041c17.4297 0 64 -18.2412 64 -74.625c0 -47.126 -38.208 -85.334 -85.333 -85.334s-85.333 38.208 -85.333 85.334c0 85.333 85.333 106.666 85.333 106.666zM240.667 351.333c-13.6113 -9.79199 -27.334 -26.2129 -27.334 -52.666
c0 -23.5312 19.1367 -42.667 42.667 -42.667s42.667 19.1357 42.667 42.667c0 26.7305 -19.4561 31.4043 -22.25 31.916h-21.917l-12.667 19.042zM256 149.333c67.0078 0 192 -32.9814 192 -96v-53.333h-384v53.333c0 63.0186 124.992 96 192 96zM256 106.667
c-70.2295 0 -149.333 -34.7949 -149.333 -53.334v-10.666h298.666v10.666c0 18.5391 -79.1035 53.334 -149.333 53.334z" />
    <glyph glyph-name="project-manager" unicode="&#xf109;" 
d="M256 384c47.0615 0 85.333 -38.2725 85.333 -85.333c0 -47.0615 -38.2715 -85.334 -85.333 -85.334s-85.333 38.2725 -85.333 85.334c0 47.0605 38.2715 85.333 85.333 85.333zM256 341.333c-23.5303 0 -42.667 -19.1357 -42.667 -42.666
c0 -23.5312 19.1367 -42.667 42.667 -42.667s42.667 19.1357 42.667 42.667c0 23.5303 -19.1367 42.666 -42.667 42.666zM256 149.333c67.0078 0 192 -32.96 192 -96v-53.333h-384v53.333c0 63.04 124.992 96 192 96zM227.583 104.833
c-61.5332 -7.26855 -120.916 -35.4395 -120.916 -51.5v-10.666h123.541l7.125 42.666zM284.417 104.833l-9.75 -19.5l7.125 -42.666h38.208v21.333h42.667v-21.333h42.666v10.666c0 16.0605 -59.3828 44.2314 -120.916 51.5z" />
    <glyph glyph-name="unsplash" unicode="&#xf1b4;" 
d="M222.75 384h66.5c27.4697 0 52.0322 -17.7305 60.708 -43.792l6.75 -20.208h69.959c23.3184 0 42.666 -19.3477 42.666 -42.667v-234.666c0 -23.3193 -19.3477 -42.667 -42.666 -42.667h-341.334c-23.3184 0 -42.666 19.3477 -42.666 42.667v234.666
c0 23.3193 19.3477 42.667 42.666 42.667h69.959l6.75 20.208c8.68066 26.0762 33.2383 43.792 60.708 43.792zM222.75 341.333c-9.2666 0 -17.3262 -5.80078 -20.25 -14.583l-16.458 -49.417h-100.709v-234.666h341.334v234.666h-100.709l-16.458 49.417
c-2.92871 8.79688 -10.9834 14.583 -20.25 14.583h-66.5zM256 256c46.877 0 85.333 -38.457 85.333 -85.333c0 -46.877 -38.4561 -85.334 -85.333 -85.334s-85.333 38.457 -85.333 85.334c0 46.876 38.4561 85.333 85.333 85.333zM256 213.333
c-23.8223 0 -42.667 -18.8438 -42.667 -42.666s18.8447 -42.667 42.667 -42.667s42.667 18.8447 42.667 42.667s-18.8447 42.666 -42.667 42.666z" />
    <glyph glyph-name="work" unicode="&#xf112;" 
d="M394.667 405.333c14.0586 0 27.3428 -3.18457 39.375 -8.625l-33.959 -33.958l10.709 -37.292l37.291 -10.708l33.959 33.958c5.43945 -12.0312 8.625 -25.3164 8.625 -39.375c0 -53.0127 -42.9873 -96 -96 -96c-9.62207 0 -18.7324 1.87598 -27.5 4.5l-62.417 -62.416
l24.917 -24.875c16.9385 -16.9395 16.6143 -44.5088 -0.708984 -61.042l-29.75 -28.417l-115.583 -57.875c-6.05859 -3.05078 -12.5977 -4.54102 -19.083 -4.54102c-11.0938 0 -21.9961 4.32812 -30.167 12.541l-94.292 94.375c-24.9814 24.9814 -24.9814 65.5186 0 90.5
l103.834 103.834c12.0107 12.0107 28.29 18.75 45.25 18.75h37.166c10.8799 0 21.335 -4.1582 29.292 -11.625l27.125 -25.625l20.417 20.416c-2.62402 8.76855 -4.5 17.8789 -4.5 27.5c0 53.0137 42.9863 96 96 96zM365.75 366.417
c-20.7998 -10.582 -35.083 -32.1875 -35.083 -57.084c0 -5.39746 0.991211 -11.209 3.125 -18.291l5.5 -18.334l-13.5 -13.5l-62.375 -62.375l18.75 -18.75l62.375 62.375l13.5 13.5l18.333 -5.5c7.10352 -2.13281 12.8945 -3.125 18.292 -3.125
c24.8955 0 46.5225 14.3047 57.125 35.084l-12.5 3.58301l-37.292 10.667l-17.083 4.91602l-4.875 17.042l-10.709 37.333zM189.167 266.667c-8.5332 0 -16.5459 -3.33789 -22.584 -9.375l-103.875 -103.834c-12.4795 -12.4795 -12.458 -32.7695 0 -45.25l94.292 -94.416
c2.00488 -2.02734 4.68262 -3.125 7.54199 -3.125c1.66406 0 3.27734 0.37793 4.75 1.125l111.25 55.75l26.291 25.125c2.83789 2.70898 3.27051 5.89746 3.29199 7.58301c0.0214844 1.66406 -0.351562 4.89355 -3.125 7.66699l-66.542 66.541l-22.625 22.625l22.625 22.625
l19.375 19.334l-26.208 24.708c-1.98438 1.87695 -4.56055 2.91699 -7.29199 2.91699h-37.166z" />
    <glyph glyph-name="inactive-state" unicode="&#xf242;" 
d="M234.667 404.25v-43.042c-31.1045 -3.90332 -59.5723 -16.1943 -83.167 -34.541l-30.417 30.416c31.6162 25.8779 70.7461 42.9004 113.584 47.167zM277.333 404.25c42.8379 -4.2666 81.9463 -21.2676 113.584 -47.167l-30.417 -30.458
c-23.5947 18.3467 -52.0625 30.6377 -83.167 34.542v43.083zM90.917 326.917l30.416 -30.417c-18.3467 -23.5947 -30.6377 -52.0625 -34.541 -83.167h-43.042c4.2666 42.8379 21.2676 81.9678 47.167 113.584zM421.083 326.917
c25.8994 -31.6162 42.9004 -70.7666 47.167 -113.625h-43.083c-3.9043 31.1035 -16.1953 59.5713 -34.542 83.166zM43.75 170.708h43.083c3.9043 -31.1035 16.1953 -59.5713 34.542 -83.166l-30.458 -30.459c-25.8994 31.6162 -42.9004 70.7666 -47.167 113.625z
M425.208 170.625h43.042c-4.2666 -42.8369 -21.2891 -81.9258 -47.167 -113.542l-30.416 30.417c18.3379 23.584 30.6318 52.0371 34.541 83.125zM151.5 57.333c23.584 -18.3379 52.0371 -30.6318 83.125 -34.541v-43.042c-42.8369 4.2666 -81.9258 21.2891 -113.542 47.167
zM360.5 57.333l30.417 -30.416c-31.6162 -25.8779 -70.7461 -42.9004 -113.584 -47.167v43.042c31.1045 3.90332 59.5723 16.1943 83.167 34.541z" />
    <glyph glyph-name="double-tick" unicode="&#xf1f5;" 
d="M347.583 313.75l30.167 -30.167l-124.542 -124.541l-30.166 30.166zM475.583 313.75l30.167 -30.167l-249.75 -249.75l-121.75 121.75l30.167 30.167l91.583 -91.583zM36.417 185.75l112.083 -112.042l-30.208 -30.208l-112.042 112.083z" />
    <glyph glyph-name="touch-id" unicode="&#xf211;" 
d="M256 384c105.781 0 192 -86.2188 192 -192c0 -35.0928 -28.9072 -64 -64 -64s-64 28.9072 -64 64c0 35.5947 -28.4053 64 -64 64s-64 -28.4053 -64 -64c0 -113.777 116.208 -172.917 116.208 -172.917l-19.083 -38.166s-139.792 68.8604 -139.792 211.083
c0 58.6562 48.0107 106.667 106.667 106.667s106.667 -48.0107 106.667 -106.667c0 -12.0537 9.2793 -21.333 21.333 -21.333s21.333 9.2793 21.333 21.333c0 82.7197 -66.6133 149.333 -149.333 149.333s-149.333 -66.6133 -149.333 -149.333
c0 -98.1338 60.958 -202.375 60.958 -202.375l-36.583 -21.917s-67.042 109.092 -67.042 224.292c0 105.781 86.2188 192 192 192zM234.667 213.333h42.666c0 -27.2588 9.55371 -65.5166 34.959 -95.541s66.1211 -53.792 135.708 -53.792v-42.667
c-79.7461 0 -135.03 29.5664 -168.292 68.875c-33.2607 39.3096 -45.041 86.3848 -45.041 123.125z" />
    <glyph glyph-name="technology-lifestyle" unicode="&#xf188;" 
d="M96 384h53.333v-64h-64v-256h149.334v64h42.666v-64h149.334v256h-21.334v64h10.667c29.4404 0 53.333 -23.8936 53.333 -53.333v-277.334c0 -29.4395 -23.8926 -53.333 -53.333 -53.333h-128c-12.0537 0 -23.0615 4.1543 -32 10.917
c-8.93848 -6.7627 -19.9463 -10.917 -32 -10.917h-128c-29.4404 0 -53.333 23.8936 -53.333 53.333v277.334c0 29.4395 23.8926 53.333 53.333 53.333zM234.667 384h85.333c23.4668 0 42.667 -19.2002 42.667 -42.667v-128l-42.667 42.667v-42.667
c0 -23.4668 -19.2002 -42.666 -42.667 -42.666h-85.333l-42.667 -42.667v128c0 23.4668 19.2002 42.667 42.667 42.667v42.666c0 23.4668 19.2002 42.667 42.667 42.667zM234.667 341.333v-42.666h42.666h42.667v42.666h-85.333zM192 256v-42.667h85.333v42.667h-85.333z
" />
    <glyph glyph-name="compare" unicode="&#xf2ad;" 
d="M64 384h192c23.5732 0 42.667 -19.0938 42.667 -42.667v-42.666h149.333v-42.667h-149.333v-128c0 -23.5732 -19.0938 -42.667 -42.667 -42.667v-42.666h192v-42.667h-192c-23.5732 0 -42.667 19.0938 -42.667 42.667v42.666h-149.333v42.667h192v213.333h-192v42.667z
M128 298.667l64 -64l-64 -64v42.666h-64v42.667h64v42.667zM384 213.333v-42.666h64v-42.667h-64v-42.667l-64 64z" />
    <glyph glyph-name="stream" unicode="&#xf238;" 
d="M224 384c17.6641 0 32 -14.3359 32 -32s-14.3359 -32 -32 -32s-32 14.3359 -32 32s14.3359 32 32 32zM341.333 362.667c23.5527 0 42.667 -19.1152 42.667 -42.667s-19.1143 -42.667 -42.667 -42.667c-23.5518 0 -42.666 19.1152 -42.666 42.667
s19.1143 42.667 42.666 42.667zM117.333 320c17.6641 0 32 -14.3359 32 -32s-14.3359 -32 -32 -32s-32 14.3359 -32 32s14.3359 32 32 32zM394.667 234.667c29.4395 0 53.333 -23.8936 53.333 -53.334c0 -29.4395 -23.8936 -53.333 -53.333 -53.333
c-29.4404 0 -53.334 23.8936 -53.334 53.333c0 29.4404 23.8936 53.334 53.334 53.334zM96 213.333c17.6641 0 32 -14.3359 32 -32s-14.3359 -32 -32 -32s-32 14.3359 -32 32s14.3359 32 32 32zM128 85.333c11.7764 0 21.333 -9.55664 21.333 -21.333
s-9.55664 -21.333 -21.333 -21.333s-21.333 9.55664 -21.333 21.333s9.55664 21.333 21.333 21.333zM341.333 85.333c11.7764 0 21.334 -9.55664 21.334 -21.333s-9.55762 -21.333 -21.334 -21.333c-11.7754 0 -21.333 9.55664 -21.333 21.333s9.55762 21.333 21.333 21.333
zM234.667 42.667c11.7754 0 21.333 -9.55762 21.333 -21.334c0 -11.7754 -9.55762 -21.333 -21.333 -21.333c-11.7764 0 -21.334 9.55762 -21.334 21.333c0 11.7764 9.55762 21.334 21.334 21.334z" />
    <glyph glyph-name="process" unicode="&#xf26e;" 
d="M234.667 448l64 -64l-21.334 -21.333v-1.45898c-0.450195 0.0566406 -0.922852 0.0292969 -1.375 0.0839844l-41.291 -41.292v41.208c-54.0322 -6.77246 -100.194 -38.7549 -126.334 -83.875h-47.791c30.2021 69.0967 95.9326 119.006 174.125 126.792v43.875z
M341.333 387.458c69.0967 -30.2021 119.006 -95.9326 126.792 -174.125h43.875l-64 -64l-21.333 21.334h-1.45898c0.0566406 0.450195 0.0292969 0.922852 0.0839844 1.375l-41.292 41.291h41.208c-6.77246 54.0322 -38.7549 100.194 -83.875 126.334v47.791zM64 234.667
l21.333 -21.334h1.45898c-0.0566406 -0.450195 -0.0292969 -0.922852 -0.0839844 -1.375l41.292 -41.291h-41.208c6.77246 -54.0322 38.7549 -100.194 83.875 -126.334v-47.791c-69.0967 30.2021 -119.006 95.9326 -126.792 174.125h-43.875zM403.667 106.667h47.791
c-30.2021 -69.0967 -95.9326 -119.006 -174.125 -126.792v-43.875l-64 64l21.334 21.333v1.45898c0.450195 -0.0566406 0.922852 -0.0292969 1.375 -0.0839844l41.291 41.292v-41.208c54.0322 6.77246 100.194 38.7549 126.334 83.875z" />
    <glyph glyph-name="states" unicode="&#xf245;" 
d="M320 405.333c82.3252 0 149.333 -66.9863 149.333 -149.333c0 -28.4375 -8.11133 -54.9287 -22 -77.542c0.320312 4.48047 0.666992 8.97656 0.666992 13.542c0 106.048 -85.9521 192 -192 192c-4.56543 0 -9.06152 -0.34668 -13.542 -0.666992
c22.6133 13.8887 49.1045 22 77.542 22zM256 341.333c82.3252 0 149.333 -66.9863 149.333 -149.333c0 -28.416 -8.11133 -54.8867 -22 -77.5c0.320312 4.48047 0.666992 8.93457 0.666992 13.5c0 106.048 -85.9521 192 -192 192
c-4.56543 0 -9.06152 -0.34668 -13.542 -0.666992c22.6133 13.8887 49.1045 22 77.542 22zM192 277.333c82.2217 0 149.333 -67.1113 149.333 -149.333s-67.1113 -149.333 -149.333 -149.333s-149.333 67.1113 -149.333 149.333s67.1113 149.333 149.333 149.333z
M192 234.667c-59.1631 0 -106.667 -47.5039 -106.667 -106.667s47.5039 -106.667 106.667 -106.667s106.667 47.5039 106.667 106.667s-47.5039 106.667 -106.667 106.667z" />
    <glyph glyph-name="information" unicode="&#xf17e;" 
d="M256 405.333c35.2852 0 64 -28.7139 64 -64c0 -35.2852 -28.7148 -64 -64 -64s-64 28.7148 -64 64c0 35.2861 28.7148 64 64 64zM256 362.667c-11.7549 0 -21.333 -9.5791 -21.333 -21.334c0 -11.7539 9.57812 -21.333 21.333 -21.333s21.333 9.5791 21.333 21.333
c0 11.7549 -9.57812 21.334 -21.333 21.334zM170.667 234.667h64h42.666c23.5312 0 42.667 -19.1367 42.667 -42.667v-170.667h21.333v-42.666h-21.333h-128h-21.333v42.666h21.333v170.667h-21.333v42.667zM234.667 192v-170.667h42.666v170.667h-42.666z" />
    <glyph glyph-name="find-user-male" unicode="&#xf285;" 
d="M256 384c47.0615 0 85.333 -38.2725 85.333 -85.333c0 -47.0615 -38.2715 -85.334 -85.333 -85.334s-85.333 38.2725 -85.333 85.334c0 47.0605 38.2715 85.333 85.333 85.333zM256 341.333c-23.5303 0 -42.667 -19.1357 -42.667 -42.666
c0 -23.5312 19.1367 -42.667 42.667 -42.667s42.667 19.1357 42.667 42.667c0 23.5303 -19.1367 42.666 -42.667 42.666zM384 170.667c59.7334 0 106.667 -46.9336 106.667 -106.667c0 -21.333 -6.41699 -42.6836 -17.084 -59.75l38.417 -38.375l-29.875 -29.875
l-38.375 38.417c-17.0664 -10.667 -38.417 -17.084 -59.75 -17.084c-59.7334 0 -106.667 46.9336 -106.667 106.667s46.9336 106.667 106.667 106.667zM256 149.333c1.72852 0 3.64453 -0.124023 5.45801 -0.166016c-9.06641 -13.0137 -16.1006 -27.4688 -20.666 -43.042
c-65.9629 -4.39453 -134.125 -35.5762 -134.125 -52.792v-10.666h129.708c2.1543 -15.083 6.56055 -29.3975 12.875 -42.667h-185.25v53.333c0 63.0186 124.992 96 192 96zM384 128c-36.2666 0 -64 -27.7334 -64 -64s27.7334 -64 64 -64s64 27.7334 64 64
s-27.7334 64 -64 64z" />
    <glyph glyph-name="page-properties-report" unicode="&#xf222;" 
d="M106.667 384h298.666c23.3193 0 42.667 -19.3477 42.667 -42.667v-298.666c0 -23.3193 -19.3477 -42.667 -42.667 -42.667h-298.666c-23.3193 0 -42.667 19.3477 -42.667 42.667v298.666c0 23.3193 19.3477 42.667 42.667 42.667zM106.667 341.333v-42.666h298.666
v42.666h-298.666zM106.667 256v-213.333h298.666v213.333h-298.666z" />
    <glyph glyph-name="machine-learning" unicode="&#xf15a;" 
d="M210.375 405.083c2.22559 0.333984 4.53516 0.342773 6.83301 -0.0410156l148.042 -25.917c4.20312 -0.767578 8.09473 -2.74316 11.167 -5.70801l107.791 -104.25c6.7207 -6.48535 8.39062 -16.6182 4.16699 -24.917c-3.69043 -7.18945 -11.1064 -11.542 -19 -11.542
c-1.2373 0 -2.4707 0.120117 -3.70801 0.333984l-148.042 25.916c-4.20312 0.768555 -8.09473 2.74316 -11.167 5.70898l-107.833 104.25c-6.71973 6.48535 -8.3916 16.5342 -4.125 24.833c3.2002 6.24023 9.19824 10.3311 15.875 11.333zM85.333 362.667h67.834
c1.70605 -4.48047 3.85645 -8.94727 6.41602 -13c0.853516 -1.49316 1.8916 -3.01172 2.95898 -4.29199c1.06641 -1.49316 2.13672 -2.76172 3.41602 -4.04199c0.853516 -1.06641 1.93359 -2.1416 3 -3.20801l18.792 -18.125h-102.417v-213.333h341.334v89.833
l21.333 -3.875l10.25 -1.70801c3.83984 -0.640625 7.45703 -0.833984 11.083 -0.833984v-83.416c0 -23.4668 -19.1992 -42.667 -42.666 -42.667h-341.334c-23.6797 0 -42.666 19.2002 -42.666 42.667v213.333c0 23.6797 18.9863 42.667 42.666 42.667zM220.583 288.208
l56.125 -54.166c9.17383 -8.95996 20.6641 -14.7373 33.25 -17.084l73.625 -13l-26.458 -51.625s-35 17.6934 -93.667 18.334c-34.7734 46.9326 -69.75 64.625 -69.75 64.625zM170.667 21.333h170.666v-42.666h-170.666v42.666z" />
    <glyph glyph-name="swipe-up" unicode="&#xf258;" 
d="M256 362.667l85.333 -85.334h-64v-88.416c36.6035 -9.59766 64 -42.7773 64 -82.25c0 -46.876 -38.457 -85.334 -85.333 -85.334s-85.333 38.458 -85.333 85.334c0 39.4727 27.3965 72.6523 64 82.25v88.416h-64zM254.083 149.125
c-22.8799 -1.00391 -40.75 -19.3008 -40.75 -42.458c0 -23.8174 18.8506 -42.667 42.667 -42.667s42.667 18.8496 42.667 42.667c0 23.1436 -17.8486 41.4336 -40.709 42.458c-0.533203 -0.0488281 -1.40137 -0.0878906 -1.9375 -0.0878906
c-0.535156 0 -1.40332 0.0390625 -1.9375 0.0878906z" />
    <glyph glyph-name="engineer-symbol" unicode="&#xf113;" 
d="M243.708 405.333h24.584c5.22656 0 9.66699 -3.77539 10.541 -8.91602l6.04199 -36.375c10.3975 -1.78711 20.4531 -4.53809 30.125 -8.125l23.458 28.5c3.30664 4.01074 9.06055 5.06055 13.584 2.45801l21.25 -12.292
c4.50098 -2.60254 6.50098 -8.07227 4.66602 -12.958l-12.916 -34.5c8.00879 -6.6748 15.4082 -14.0742 22.083 -22.083l34.5 12.916c4.86426 1.83496 10.3555 -0.143555 12.958 -4.66602l12.292 -21.25c2.60254 -4.52344 1.57324 -10.2773 -2.45801 -13.584l-28.5 -23.5
c3.58008 -9.66016 6.33984 -19.6992 8.125 -30.083l36.375 -6.04199c5.14062 -0.852539 8.91602 -5.33594 8.91602 -10.541v-24.584c0 -5.22656 -3.77539 -9.66699 -8.91602 -10.541l-36.375 -6.04199c-1.78711 -10.3975 -4.53809 -20.4531 -8.125 -30.125l28.5 -23.458
c4.01074 -3.30664 5.06055 -9.06055 2.45801 -13.584l-12.292 -21.25c-2.60254 -4.50098 -8.07227 -6.50098 -12.958 -4.66602l-34.5 12.916c-6.6748 -8.00879 -14.0742 -15.4082 -22.083 -22.083l12.916 -34.5c1.83496 -4.86426 -0.143555 -10.3555 -4.66602 -12.958
l-21.25 -12.292c-4.52344 -2.60254 -10.2773 -1.57324 -13.584 2.45801l-23.5 28.5c-9.66016 -3.58008 -19.6992 -6.33984 -30.083 -8.125l-6.04199 -36.375c-0.852539 -5.14062 -5.33594 -8.91602 -10.541 -8.91602h-24.584c-5.22656 0 -9.66699 3.77539 -10.541 8.91602
l-6.04199 36.375c-10.3975 1.78711 -20.4531 4.53809 -30.125 8.125l-23.458 -28.5c-3.30664 -4.01074 -9.06055 -5.06055 -13.584 -2.45801l-21.25 12.292c-4.50098 2.60254 -6.50098 8.07227 -4.66602 12.958l12.916 34.5
c-8.00879 6.6748 -15.4082 14.0742 -22.083 22.083l-34.5 -12.916c-4.86426 -1.83496 -10.3555 0.143555 -12.958 4.66602l-12.292 21.25c-2.60254 4.52344 -1.57324 10.2773 2.45801 13.584l28.5 23.5c-3.58008 9.66016 -6.33984 19.6992 -8.125 30.083l-36.375 6.04199
c-5.14062 0.852539 -8.91602 5.33594 -8.91602 10.541v24.584c0 5.22656 3.77539 9.66699 8.91602 10.541l36.375 6.04199c1.78516 10.3838 4.54492 20.4229 8.125 30.083l-28.5 23.5c-4.03125 3.30664 -5.08203 9.06055 -2.45801 13.584l12.292 21.25
c2.60254 4.52246 8.09375 6.50098 12.958 4.66602l34.5 -12.916c6.6748 8.00879 14.0742 15.4082 22.083 22.083l-12.916 34.5c-1.83496 4.86426 0.143555 10.3555 4.66602 12.958l21.25 12.292c4.52344 2.62402 10.2773 1.57324 13.584 -2.45801l23.5 -28.5
c9.66016 3.58008 19.6992 6.33984 30.083 8.125l6.04199 36.375c0.852539 5.14062 5.33594 8.91602 10.541 8.91602zM234.667 318.083c-32.6074 -5.43262 -60.873 -23.0264 -80.125 -48.083l39 -20.708c10.9775 11.8271 25.0664 20.748 41.125 24.958v43.833zM277.333 318
v-43.75c16.0586 -4.20996 30.1475 -13.1309 41.125 -24.958l39.042 20.708c-19.2471 25.0605 -47.5869 42.5439 -80.167 48zM256 234.667c-23.8164 0 -42.667 -18.8506 -42.667 -42.667s18.8506 -42.667 42.667 -42.667s42.667 18.8506 42.667 42.667
s-18.8506 42.667 -42.667 42.667zM134.542 232.292c-4.17188 -12.6689 -6.54199 -26.1855 -6.54199 -40.292s2.37012 -27.623 6.54199 -40.292l38.75 20.584c-1.54395 6.3584 -2.625 12.8838 -2.625 19.708s1.08105 13.3496 2.625 19.708zM377.458 232.292l-38.75 -20.584
c1.54395 -6.3584 2.625 -12.8838 2.625 -19.708s-1.08105 -13.3496 -2.625 -19.708l38.75 -20.584c4.17188 12.6689 6.54199 26.1855 6.54199 40.292s-2.37012 27.623 -6.54199 40.292zM193.542 134.708l-39.042 -20.708c19.2471 -25.0605 47.5869 -42.5439 80.167 -48
v43.75c-16.0586 4.20996 -30.1475 13.1309 -41.125 24.958zM318.458 134.708c-10.9775 -11.8271 -25.0664 -20.748 -41.125 -24.958v-43.833c32.6162 5.43359 60.915 23.0156 80.167 48.083z" />
    <glyph glyph-name="profile" unicode="&#xf16b;" 
d="M149.333 405.333h170.667l128 -128v-256c0 -23.5303 -19.1357 -42.666 -42.667 -42.666h-64v42.666h64v234.667h-106.666v106.667h-149.334v-44.834c-15.8721 -3.2207 -30.208 -10.2588 -42.666 -19.666v64.5c0 23.5303 19.1357 42.666 42.666 42.666zM170.667 277.333
c35.0928 0 64 -28.9062 64 -64c0 -35.0928 -28.9072 -64 -64 -64c-35.0938 0 -64 28.9072 -64 64c0 35.0938 28.9062 64 64 64zM170.667 234.667c-12.0352 0 -21.334 -9.29883 -21.334 -21.334c0 -12.0342 9.29883 -21.333 21.334 -21.333
c12.0342 0 21.333 9.29883 21.333 21.333c0 12.0352 -9.29883 21.334 -21.333 21.334zM170.667 106.667c31.4971 0 60.4756 -4.96191 83.625 -14.917c11.5742 -4.97754 21.8213 -11.2119 30.041 -19.875s14.334 -20.6895 14.334 -33.833v-38.042v-21.333h-256v59.375
c0 13.1436 6.11328 25.1699 14.333 33.833s18.4668 14.8975 30.042 19.875c23.1494 9.95508 52.127 14.917 83.625 14.917zM170.667 64c-26.7637 0 -51.1318 -4.74219 -66.75 -11.458c-7.80957 -3.3584 -13.2812 -7.2207 -15.959 -10.042
c-2.67676 -2.82129 -2.625 -3.65039 -2.625 -4.45801v-16.709h170.667v16.709c0 0.807617 0.0517578 1.63672 -2.625 4.45801s-8.14941 6.68359 -15.958 10.042c-15.6191 6.71582 -39.9863 11.458 -66.75 11.458z" />
    <glyph glyph-name="map" unicode="&#xf1b5;" 
d="M191.333 385.375l128 -42.667l99.417 39.75c14.0156 5.61133 29.25 -4.70898 29.25 -19.791v-298.667c0 -8.72559 -5.30957 -16.5488 -13.417 -19.792l-113.916 -45.583l-128 42.667l-99.417 -39.75c-14.0156 -5.61133 -29.25 4.70898 -29.25 19.791v298.667
c0 8.72559 5.30957 16.5488 13.417 19.792zM213.333 333.083v-253.708l85.334 -28.458v253.708zM170.667 331.167l-64 -25.625v-252.709l64 25.625v252.709zM405.333 331.167l-64 -25.625v-252.709l64 25.625v252.709z" />
    <glyph glyph-name="search-in-list" unicode="&#xf22e;" 
d="M52 352c17.6641 0 32 -14.3359 32 -32s-14.3359 -32 -32 -32s-32 14.3359 -32 32s14.3359 32 32 32zM137.333 341.333h320v-42.666h-320v42.666zM52 224c17.6641 0 32 -14.3359 32 -32s-14.3359 -32 -32 -32s-32 14.3359 -32 32s14.3359 32 32 32zM137.333 213.333
h234.667c-40.6611 0 -77.4941 -16.2979 -104.417 -42.666h-130.25v42.666zM372 170.667c59.7334 0 106.667 -46.9336 106.667 -106.667c0 -21.333 -6.41699 -42.6836 -17.084 -59.75l38.417 -38.375l-29.875 -29.875l-38.375 38.417
c-17.0664 -10.667 -38.417 -17.084 -59.75 -17.084c-59.7334 0 -106.667 46.9336 -106.667 106.667s46.9336 106.667 106.667 106.667zM372 128c-36.2666 0 -64 -27.7334 -64 -64s27.7334 -64 64 -64s64 27.7334 64 64s-27.7334 64 -64 64zM52 96
c17.6641 0 32 -14.3359 32 -32s-14.3359 -32 -32 -32s-32 14.3359 -32 32s14.3359 32 32 32zM137.333 85.333h87.042c-1.00293 -6.97559 -1.70801 -14.0801 -1.70801 -21.333s0.705078 -14.3574 1.70801 -21.333h-87.042v42.666z" />
    <glyph glyph-name="conference-phone" unicode="&#xf148;" 
d="M64 341.333h277.333c23.3193 0 42.667 -19.3477 42.667 -42.666v-62.292l106.667 85.333v-259.416l-106.667 85.333v-62.292c0 -23.3184 -19.3477 -42.666 -42.667 -42.666h-277.333c-23.3184 0 -42.667 19.3477 -42.667 42.666v213.334
c0 23.3184 19.3486 42.666 42.667 42.666zM64 298.667v-213.334h277.333v213.334h-277.333zM448 232.917l-51.167 -40.917l51.167 -40.917v81.834z" />
    <glyph glyph-name="hand-with-pen" unicode="&#xf149;" 
d="M384 405.333l85.333 -85.333l-128 -128h-60.333l128 128l-25 25l-157.708 -157.708c-34.8594 -10.1553 -62.0957 -37.3916 -72.25 -72.25l-68.709 -68.709v-25h25l41.459 41.459c3.28516 -15.2754 10.0576 -29.1338 19.125 -41.209l-42.917 -42.916h-85.333v85.333z
M184.667 362.667h106.625l-42.667 -42.667l-76 -1.70801c-6.7627 -1.98438 -13.0049 -5.67188 -18.125 -10.792l-66.583 -66.583c-1.98438 -1.98438 -2.23535 -4.65137 -2 -5.33398c0.149414 -0.149414 0.762695 -0.916016 2 -0.916016h40.083v-21.334l-8.08301 -8.08301
c-8.83203 -8.83203 -20.416 -13.25 -32 -13.25c-12.9922 0 -26.0156 5.55078 -35.125 16.708c-14.998 18.3252 -11.7891 45.6289 4.95801 62.375l66.583 66.584c16.0215 16.0205 37.6992 25 60.334 25zM448 234.667v-60.625l-67.667 -67.375h-124.333
c-11.7549 0 -21.333 -9.5791 -21.333 -21.334c0 -11.7539 9.57812 -21.333 21.333 -21.333h81.958h67.375h42.667v-42.667h-192c-35.3496 0 -64 28.6514 -64 64c0 35.3496 28.6504 64 64 64h106.667z" />
    <glyph glyph-name="customer-support" unicode="&#xf165;" 
d="M225.667 405.083c90.5205 4.54785 168.759 -62.2891 178.541 -151.583v-0.0419922l37.917 -59.5c6.86621 -10.8184 1.33398 -29.0059 -10.625 -34.041l-26.167 -11.042v-63.542c0 -23.3184 -19.3477 -42.666 -42.666 -42.666h-42.667v-64h-192v58.875
c0 52.8262 -14.9824 72.4121 -31.542 96.333c-13.249 19.1162 -28.2764 42.1221 -31.625 80.75c-7.8623 90.1055 52.1768 174.504 142.584 188.583c6.12695 0.952148 12.2148 1.57227 18.25 1.875zM213.333 360.958c-67.2959 -10.8516 -112.026 -73.5586 -106 -142.625
v-0.0410156c2.625 -30.2783 10.9619 -41.0127 24.209 -60.125c16.5498 -23.9092 39.125 -58.5078 39.125 -120.625v-16.209h106.666v64h85.334v77.709v14.125l31.166 13.166l-25.625 40.209l-5.33301 8.41602l-1.08301 9.875
c-6.34766 57.9424 -49.877 102.968 -105.792 112.125v-110.708c11.7656 -6.79297 21.3223 -23.3311 21.333 -36.917c-0.015625 -3.08984 -0.6875 -8.01758 -1.5 -11l31.75 -31.75c0.482422 0.0361328 1.2666 0.0742188 1.75 0.0839844c17.6641 0 32 -14.3359 32 -32
s-14.3359 -32 -32 -32s-32 14.3359 -32 32c0.00976562 0.483398 0.0478516 1.26758 0.0839844 1.75l-31.709 31.708c-2.99414 -0.803711 -7.94043 -1.45703 -11.041 -1.45801c-23.5527 0 -42.667 19.1143 -42.667 42.666c0.0244141 13.5703 9.58105 30.0908 21.333 36.875
v110.75z" />
    <glyph glyph-name="classroom" unicode="&#xf1c4;" 
d="M128 405.333c23.5518 0 42.667 -19.1143 42.667 -42.666c0 -23.5527 -19.1152 -42.667 -42.667 -42.667s-42.667 19.1143 -42.667 42.667c0 23.5518 19.1152 42.666 42.667 42.666zM213.333 384h202.667c17.4307 0 32 -14.5693 32 -32v-192
c0 -17.4307 -14.5693 -32 -32 -32h-181.333v42.667h170.666v170.666h-192v42.667zM106.667 298.667h64h21.333h128v-42.667h-128v-128h-128v128c0 23.5732 19.0938 42.667 42.667 42.667zM128 85.333c23.5518 0 42.667 -19.1143 42.667 -42.666
c0 -23.5527 -19.1152 -42.667 -42.667 -42.667s-42.667 19.1143 -42.667 42.667c0 23.5518 19.1152 42.666 42.667 42.666zM256 85.333c23.5518 0 42.667 -19.1143 42.667 -42.666c0 -23.5527 -19.1152 -42.667 -42.667 -42.667s-42.667 19.1143 -42.667 42.667
c0 23.5518 19.1152 42.666 42.667 42.666zM384 85.333c23.5518 0 42.667 -19.1143 42.667 -42.666c0 -23.5527 -19.1152 -42.667 -42.667 -42.667s-42.667 19.1143 -42.667 42.667c0 23.5518 19.1152 42.666 42.667 42.666z" />
    <glyph glyph-name="face-id" unicode="&#xf210;" 
d="M128 384h42.667v-42.667h-42.667c-12.0537 0 -21.333 -9.2793 -21.333 -21.333v-42.667h-42.667v42.667c0 35.0928 28.9072 64 64 64zM341.333 384h42.667c35.0928 0 64 -28.9072 64 -64v-42.667h-42.667v42.667c0 12.0537 -9.2793 21.333 -21.333 21.333h-42.667v42.667
zM149.333 277.333h42.667v-64h-42.667v64zM234.667 277.333h42.666v-85.333c0 -23.3184 -19.3477 -42.667 -42.666 -42.667h-21.334v42.667h21.334v85.333zM320 277.333h42.667v-64h-42.667v64zM207.083 121.75c0 0 2.33594 -2.60547 10.459 -6.66699
c8.12207 -4.06055 20.6807 -8.41602 38.458 -8.41602s30.3359 4.35547 38.458 8.41602c8.12305 4.06152 10.459 6.66699 10.459 6.66699l30.166 -30.167s-8.33008 -8.06055 -21.541 -14.666s-32.6533 -12.917 -57.542 -12.917s-44.3311 6.31152 -57.542 12.917
s-21.541 14.666 -21.541 14.666zM64 106.667h42.667v-42.667c0 -12.0537 9.2793 -21.333 21.333 -21.333h42.667v-42.667h-42.667c-35.0928 0 -64 28.9072 -64 64v42.667zM405.333 106.667h42.667v-42.667c0 -35.0928 -28.9072 -64 -64 -64h-42.667v42.667h42.667
c12.0537 0 21.333 9.2793 21.333 21.333v42.667z" />
    <glyph glyph-name="reseller" unicode="&#xf181;" 
d="M256 405.333c41.2373 0 74.667 -33.4287 74.667 -74.666s-33.4297 -74.667 -74.667 -74.667s-74.667 33.4297 -74.667 74.667s33.4297 74.666 74.667 74.666zM256 362.667c-17.6426 0 -32 -14.3574 -32 -32s14.3574 -32 32 -32s32 14.3574 32 32s-14.3574 32 -32 32z
M256 234.667c49.835 0 149.333 -25.0029 149.333 -74.667v-53.333h-40.958l34.583 -43.209c1.74902 0.282227 4.60449 0.524414 6.375 0.541992c23.5527 0 42.667 -19.1143 42.667 -42.667c0 -23.5518 -19.1143 -42.666 -42.667 -42.666
c-23.5518 0 -42.666 19.1143 -42.666 42.666c0.015625 4.41992 1.34082 11.3457 2.95801 15.459l-55.875 69.875h-32.417v-48.417c11.7656 -6.79297 21.3232 -23.3311 21.334 -36.917c0 -23.5518 -19.1152 -42.666 -42.667 -42.666s-42.667 19.1143 -42.667 42.666
c0.0244141 13.5703 9.58203 30.0908 21.334 36.875v48.459h-32.417l-55.833 -69.834c1.60938 -4.12598 2.91602 -11.0703 2.91602 -15.5c0 -23.5518 -19.1143 -42.666 -42.666 -42.666c-23.5527 0 -42.667 19.1143 -42.667 42.666c0 23.5527 19.1143 42.667 42.667 42.667
c1.77051 -0.0175781 4.62598 -0.259766 6.375 -0.541992l34.583 43.209h-40.958v53.333c0 49.6641 99.498 74.667 149.333 74.667zM256 192c-45.5254 0 -98.6025 -20.5098 -106.667 -33.417v-9.25h213.334v9.25c-8.06445 12.9072 -61.1416 33.417 -106.667 33.417z" />
    <glyph glyph-name="indeterminate-checkbox" unicode="&#xf1f9;" 
d="M106.667 384h298.666c23.3193 0 42.667 -19.3477 42.667 -42.667v-298.666c0 -23.3193 -19.3477 -42.667 -42.667 -42.667h-298.666c-23.3193 0 -42.667 19.3477 -42.667 42.667v298.666c0 23.3193 19.3477 42.667 42.667 42.667zM106.667 341.333v-298.666h298.666
v298.666h-298.666zM149.333 213.333h213.334v-42.666h-213.334v42.666z" />
    <glyph glyph-name="administrator-male" unicode="&#xf27a;" 
d="M256 384c47.125 0 85.333 -38.208 85.333 -85.333c0 -47.126 -38.208 -85.334 -85.333 -85.334s-85.333 38.208 -85.333 85.334c0 47.125 38.208 85.333 85.333 85.333zM256 341.333c-23.5732 0 -42.667 -19.0928 -42.667 -42.666s19.0938 -42.667 42.667 -42.667
s42.667 19.0938 42.667 42.667s-19.0938 42.666 -42.667 42.666zM256 149.333c67.0078 0 192 -32.9814 192 -96v-53.333h-384v53.333c0 63.0186 124.992 96 192 96zM256 106.667c-4.22461 0 -8.52246 -0.509766 -12.792 -0.75l-29.875 -52l-24.041 43.583
c-45.6484 -11.5742 -82.625 -31.5293 -82.625 -44.167v-10.666h298.666v10.666c0 12.6377 -36.9766 32.5928 -82.625 44.167l-24.041 -43.583l-29.875 52c-4.26953 0.240234 -8.56738 0.75 -12.792 0.75z" />
    <glyph glyph-name="enter" unicode="&#xf1ed;" 
d="M106.667 384h298.666c23.3193 0 42.667 -19.3477 42.667 -42.667v-298.666c0 -23.3193 -19.3477 -42.667 -42.667 -42.667h-298.666c-23.3193 0 -42.667 19.3477 -42.667 42.667v128v42.666v128c0 23.3193 19.3477 42.667 42.667 42.667zM106.667 341.333v-128h140.5
l-48.917 48.917l30.167 30.167l100.416 -100.417l-100.416 -100.417l-30.167 30.167l48.917 48.917h-140.5v-128h298.666v298.666h-298.666z" />
    <glyph glyph-name="add-property" unicode="&#xf295;" 
d="M106.667 384h298.666c23.5732 0 42.667 -19.0938 42.667 -42.667v-192h-42.667v106.667h-298.666v-213.333h192v-42.667h-192c-23.5732 0 -42.667 19.0938 -42.667 42.667v298.666c0 23.5732 19.0938 42.667 42.667 42.667zM106.667 341.333v-42.666h298.666v42.666
h-298.666zM149.333 213.333h42.667v-42.666h-42.667v42.666zM234.667 213.333h128v-42.666h-128v42.666zM149.333 128h42.667v-42.667h-42.667v42.667zM234.667 128h128v-42.667h-128v42.667zM405.333 106.667h42.667v-64h64v-42.667h-64v-64h-42.667v64h-64v42.667h64v64z
" />
    <glyph glyph-name="delete-database" unicode="&#xf1a1;" 
d="M128 405.333h256c23.5732 0 42.667 -19.0928 42.667 -42.666v-213.334h-42.667v85.334h-256v-85.334h224.292l-22.375 -22.416l-20.292 -20.25h-181.625v-85.334h186.833l-15.083 -15.083l-27.583 -27.583h-144.167c-23.5732 0 -42.667 19.0928 -42.667 42.666v341.334
c0 23.5732 19.0938 42.666 42.667 42.666zM128 362.667v-85.334h256v85.334h-256zM360.083 96.75l45.25 -45.25l45.25 45.25l30.167 -30.167l-45.25 -45.25l45.25 -45.25l-30.167 -30.166l-45.25 45.25l-45.25 -45.25l-30.166 30.166l45.25 45.25l-45.25 45.25z" />
    <glyph glyph-name="verified-account" unicode="&#xf254;" 
d="M192.042 405.125c7.66895 0.389648 15.4424 -0.583008 23 -3.04199l40.958 -13.208l41 13.25c30.0156 9.74902 64.2676 -4.40234 78.625 -32.583l19.625 -38.334l38.333 -19.583c28.8857 -14.7412 42.5469 -47.8184 32.542 -78.667l-13.25 -40.958l13.25 -40.958
c10.0049 -30.8057 -3.67773 -63.9043 -32.542 -78.667l-38.375 -19.583l-19.583 -38.334c-11.2852 -22.0801 -33.6689 -35.791 -58.458 -35.791c-6.87012 0 -13.6592 1.07422 -20.209 3.20801l-40.958 13.25l-41 -13.292c-30.0371 -9.77051 -64.2246 4.42285 -78.625 32.625
l-19.625 38.334l-38.333 19.541c-28.8857 14.7627 -42.5469 47.8408 -32.542 78.667l13.25 41l-13.25 40.958c-9.98438 30.8271 3.69824 63.9258 32.583 78.667l38.334 19.583l19.583 38.334c10.7842 21.1357 32.6572 34.415 55.667 35.583zM193.75 362.625
c-8.08301 -0.392578 -15.6152 -5.1084 -19.375 -12.5l-22.75 -44.5c-2.02637 -3.98926 -5.28223 -7.20215 -9.25 -9.25l-44.5 -22.75c-10.1123 -5.16309 -14.915 -16.7471 -11.417 -27.542l15.375 -47.541c1.38672 -4.2666 1.38672 -8.8584 0 -13.125l-15.375 -47.5
c-3.49805 -10.7949 1.32617 -22.3789 11.417 -27.542l44.5 -22.75c3.98926 -2.04785 7.24414 -5.30273 9.29199 -9.29199l22.708 -44.5c4.99219 -9.83398 16.9404 -14.8721 27.5 -11.416l47.542 15.416c2.13281 0.725586 4.36426 1.04199 6.58301 1.04199
s4.4502 -0.337891 6.58301 -1.04199l47.542 -15.375c10.752 -3.51953 22.4863 1.58203 27.5 11.417l22.75 44.5c2.04785 3.98926 5.26074 7.20215 9.25 9.25l44.542 22.75c10.1113 5.16309 14.873 16.7471 11.375 27.542l-13.25 40.958l-2.125 6.58301
c-1.38672 4.2666 -1.38672 8.8584 0 13.125l15.375 47.5c3.49805 10.7949 -1.28418 22.3789 -11.375 27.542l-44.542 22.75c-3.98926 2.04785 -7.20215 5.30273 -9.25 9.29199l-22.75 44.5c-5.01367 9.85547 -16.9199 14.8721 -27.458 11.416l-47.542 -15.416
c-4.28809 -1.38672 -8.91992 -1.38672 -13.208 0l-47.5 15.375c-2.69922 0.890625 -5.47266 1.21387 -8.16699 1.08301zM347.583 271.083l30.167 -30.166l-143.083 -143.084l-79.084 79.084l30.167 30.166l48.917 -48.916z" />
    <glyph glyph-name="menu-vertical" unicode="&#xf213;" 
d="M234.667 384h42.666c11.7764 0 21.334 -9.55762 21.334 -21.333v-42.667c0 -11.7764 -9.55762 -21.333 -21.334 -21.333h-42.666c-11.7764 0 -21.334 9.55664 -21.334 21.333v42.667c0 11.7754 9.55762 21.333 21.334 21.333zM234.667 234.667h42.666
c11.7764 0 21.334 -9.55762 21.334 -21.334v-42.666c0 -11.7764 -9.55762 -21.334 -21.334 -21.334h-42.666c-11.7764 0 -21.334 9.55762 -21.334 21.334v42.666c0 11.7764 9.55762 21.334 21.334 21.334zM234.667 85.333h42.666c11.7764 0 21.334 -9.55664 21.334 -21.333
v-42.667c0 -11.7754 -9.55762 -21.333 -21.334 -21.333h-42.666c-11.7764 0 -21.334 9.55762 -21.334 21.333v42.667c0 11.7764 9.55762 21.333 21.334 21.333z" />
    <glyph glyph-name="maintenance" unicode="&#xf201;" 
d="M106.667 384l45 -30c11.8828 -7.91504 19 -21.249 19 -35.5v-11l75.458 -75.458l53.833 53.833c-0.618164 4.20312 -1.29102 8.41797 -1.29102 12.792c0 47.125 38.208 85.333 85.333 85.333c12.501 0 24.3125 -2.82422 35 -7.66699l-30.167 -30.166l9.5 -33.167
l33.167 -9.5l30.167 30.167c4.84277 -10.6885 7.66602 -22.499 7.66602 -35c0 -47.126 -38.208 -85.334 -85.333 -85.334c-4.37305 0 -8.58887 0.672852 -12.792 1.29199l-33.291 -33.292l99.625 -99.666c13.9092 -13.9092 13.9092 -36.4658 0 -50.375l-20.875 -20.875
c-6.95508 -6.95508 -16.0576 -10.417 -25.167 -10.417s-18.2539 3.46191 -25.208 10.417l-99.625 99.666l-99.625 -99.666c-6.95508 -6.95508 -16.0996 -10.417 -25.209 -10.417c-9.12988 0 -18.2324 3.48242 -25.208 10.458l-20.875 20.875
c-13.9092 13.9092 -13.9092 36.4658 0 50.375l120.208 120.167l-75.458 75.458h-11c-14.251 0 -27.585 7.11719 -35.5 19l-30 45zM356.125 344.125c-15.2529 -9.38672 -25.458 -26.2588 -25.458 -45.458c0 -1.85645 0.426758 -4.68066 0.875 -7.66699l2.41602 -16
l-11.375 -11.75l-204.166 -204.167c-1.4082 -1.42871 -1.4082 -3.75879 0 -5.16602l20.875 -20.834c0.704102 -0.704102 1.55957 -1.08301 2.54102 -1.08301s1.87988 0.378906 2.58398 1.08301l99.625 99.625l-0.208984 0.208984l71.25 71.25l0.208984 -0.208984
l33.291 33.292l11.459 11.417l15.958 -2.41699c3.30664 -0.490234 6.14355 -0.916992 8 -0.916992c19.2002 0 36.0508 10.1846 45.458 25.417l-6.79102 1.95801l-33.167 9.5l-17.083 4.875l-4.875 17.084l-9.5 33.166zM315.292 158.708l-25.959 -26l99.625 -99.625
c0.704102 -0.704102 1.58105 -1.04102 2.58398 -1.04102c0.981445 0 1.83691 0.336914 2.54102 1.04102l20.875 20.875c1.4082 1.42969 1.4082 3.71777 0 5.125z" />
    <glyph glyph-name="feedback" unicode="&#xf1fd;" 
d="M256 426.833l192.167 -112.125c13.084 -7.62891 21.166 -21.6875 21.166 -36.833v-213.875c0 -23.3184 -19.3477 -42.667 -42.666 -42.667h-341.334c-23.3184 0 -42.666 19.3486 -42.666 42.667v213.875c0 15.1455 8.08203 29.2041 21.166 36.833zM256 377.417
l-168.375 -98.209l168.375 -104.75l168.375 104.75zM256 341.333l64 -64h-42.667v-50.75l-21.333 -13.25l-21.333 13.25v50.75h-42.667zM85.333 230.375v-166.375h341.334v166.375l-170.667 -106.167z" />
    <glyph glyph-name="pie-chart" unicode="&#xf191;" 
d="M256 405.333c117.824 0 213.333 -95.5088 213.333 -213.333s-95.5088 -213.333 -213.333 -213.333s-213.333 95.5088 -213.333 213.333s95.5088 213.333 213.333 213.333zM234.667 361.208c-84.1631 -10.5186 -149.334 -82.1973 -149.334 -169.208
s65.1709 -158.689 149.334 -169.208v338.416zM277.333 361.208v-147.875h147.875c-9.64258 77.1602 -70.7148 138.232 -147.875 147.875zM277.333 170.667v-147.875c77.1602 9.64258 138.232 70.7148 147.875 147.875h-147.875z" />
    <glyph glyph-name="responsive" unicode="&#xf28f;" 
d="M64 405.333h384c23.5732 0 42.667 -19.0928 42.667 -42.666v-256c0 -23.5732 -19.0938 -42.667 -42.667 -42.667h-149.333v-42.667h42.666v-42.666h-170.666v42.666h42.666v42.667h-149.333c-23.5732 0 -42.667 19.0938 -42.667 42.667v256
c0 23.5732 19.0938 42.666 42.667 42.666zM64 362.667v-256h384v256h-384zM106.667 320h106.666v-170.667h-106.666v149.334v21.333zM256 320h149.333v-170.667h-149.333v149.334v21.333zM149.333 277.333v-85.333h21.334v85.333h-21.334zM298.667 277.333v-85.333h64
v85.333h-64z" />
    <glyph glyph-name="new-window" unicode="&#xf21e;" 
d="M106.667 384h298.666c23.3193 0 42.667 -19.3477 42.667 -42.667v-298.666c0 -23.3193 -19.3477 -42.667 -42.667 -42.667h-298.666c-23.3193 0 -42.667 19.3477 -42.667 42.667v298.666c0 23.3193 19.3477 42.667 42.667 42.667zM106.667 341.333v-42.666h298.666
v42.666h-298.666zM106.667 256v-213.333h298.666v213.333h-298.666zM234.667 224h42.666v-53.333h53.334v-42.667h-53.334v-53.333h-42.666v53.333h-53.334v42.667h53.334v53.333z" />
    <glyph glyph-name="completed-project" unicode="&#xf10b;" 
d="M256 405.333c41.1738 0 79.4658 -11.9209 112.042 -32.166l-31.334 -31.292c-18.1172 9.8457 -38.1035 16.6162 -59.375 19.375v-41.25h-42.666v41.208c-77.0371 -9.6748 -138.2 -70.8379 -147.875 -147.875h41.208v-42.666h-41.208
c9.6748 -77.0371 70.8379 -138.2 147.875 -147.875v41.208h42.666v-41.208c77.0371 9.6748 138.2 70.8379 147.875 147.875h-41.208v42.666h41.125c-1.35547 10.0986 -3.54102 19.9658 -6.54199 29.459l33.25 33.208c11.1152 -25.8135 17.5 -54.1123 17.5 -84
c0 -117.824 -95.5088 -213.333 -213.333 -213.333s-213.333 95.5088 -213.333 213.333s95.5088 213.333 213.333 213.333zM411.583 356.417l30.167 -30.167l-185.75 -185.75l-100.417 100.417l30.167 30.166l70.25 -70.25z" />
    <glyph glyph-name="checked-user-male" unicode="&#xf283;" 
d="M256 384c46.876 0 85.333 -38.458 85.333 -85.333c0 -46.876 -38.457 -85.334 -85.333 -85.334s-85.333 38.458 -85.333 85.334c0 46.875 38.457 85.333 85.333 85.333zM256 341.333c-23.8164 0 -42.667 -18.8496 -42.667 -42.666
c0 -23.8174 18.8506 -42.667 42.667 -42.667s42.667 18.8496 42.667 42.667c0 23.8164 -18.8506 42.666 -42.667 42.666zM384 192c70.4395 0 128 -57.5605 128 -128s-57.5605 -128 -128 -128c-47.1396 0 -88.4131 25.834 -110.625 64h-209.375v53.333
c0 19.2139 11.4629 34.2998 24.875 45.459s30.1699 19.8496 48.708 27.166c37.0762 14.6328 81.1914 23.375 118.417 23.375c9.94629 0 20.4453 -0.829102 31.083 -2.04102c23.5146 27.3047 58.2451 44.708 96.917 44.708zM384 149.333
c-47.3809 0 -85.333 -37.9521 -85.333 -85.333s37.9521 -85.333 85.333 -85.333s85.333 37.9521 85.333 85.333c0 10.1104 -2.02832 19.6504 -5.20801 28.625l-80.125 -80.125l-57.75 57.75l30.167 30.167l27.583 -27.584l55.583 55.584
c-14.9287 12.873 -34.167 20.916 -55.583 20.916zM256 106.667c-30.166 0 -71.3828 -7.97852 -102.792 -20.375c-15.7041 -6.19824 -28.9834 -13.5869 -37.041 -20.292c-8.05859 -6.70508 -9.5 -11.2715 -9.5 -12.667v-10.666h151.291
c-1.18164 6.95996 -1.95801 14.0479 -1.95801 21.333c0 14.8447 2.68066 29.0508 7.375 42.333c-2.43359 0.0878906 -5.06445 0.333984 -7.375 0.333984z" />
    <glyph glyph-name="mail-account" unicode="&#xf28a;" 
d="M85.333 362.667h341.334c23.5732 0 42.666 -19.0938 42.666 -42.667v-149.333h-42.666v85.291l-170.667 -106.625l-170.667 106.625v-191.958h256v-42.667h-256c-23.5732 0 -42.666 19.0938 -42.666 42.667v256c0 23.5732 19.0928 42.667 42.666 42.667zM85.333 320
v-21.375l170.667 -106.625l170.667 106.625v21.375h-341.334zM426.667 128c23.5518 0 42.666 -19.1143 42.666 -42.667c0 -23.5518 -19.1143 -42.666 -42.666 -42.666c-23.5527 0 -42.667 19.1143 -42.667 42.666c0 23.5527 19.1143 42.667 42.667 42.667zM426.667 0
c28.4795 0 85.333 -14.293 85.333 -42.667v-21.333h-170.667v21.333c0 28.374 56.8535 42.667 85.334 42.667z" />
    <glyph glyph-name="data-backup" unicode="&#xf1a2;" 
d="M128 405.333h256c23.5732 0 42.667 -19.0928 42.667 -42.666v-133.584c-13.6533 3.52051 -27.9043 5.58398 -42.667 5.58398h-256v-85.334h108.333c-7.6582 -13.2051 -13.5127 -27.5195 -17.416 -42.666h-90.917v-85.334h90.917
c3.90332 -15.1465 9.75781 -29.4609 17.416 -42.666h-108.333c-23.5732 0 -42.667 19.0928 -42.667 42.666v341.334c0 23.5732 19.0938 42.666 42.667 42.666zM128 362.667v-85.334h256v85.334h-256zM384 192c70.4346 0 128 -57.5654 128 -128s-57.5654 -128 -128 -128
v42.667c47.3682 0 85.333 37.9648 85.333 85.333s-37.9648 85.333 -85.333 85.333s-85.333 -37.9648 -85.333 -85.333c0 -18.2051 5.68066 -34.9277 15.291 -48.708l27.375 27.375v-85.334h-85.333l27.583 27.584c-17.1953 21.8154 -27.583 49.2793 -27.583 79.083
c0 70.4346 57.5654 128 128 128z" />
    <glyph glyph-name="cloud-checked" unicode="&#xf177;" 
d="M256 362.667c67.2588 0 122.347 -45.6924 140.875 -107.125c63.4756 -1.25879 115.125 -53.1123 115.125 -116.875c0 -64.5459 -52.7881 -117.334 -117.333 -117.334h-256c-76.3369 0 -138.667 62.3311 -138.667 138.667c0 75.8057 61.5566 137.517 137.167 138.375
c27.1123 37.6357 69.0303 64.292 118.833 64.292zM256 320c-39.7256 0 -74.0244 -21.5967 -92.458 -53.625l-6.5 -11.333l-13.042 0.666016c-2.84863 0.142578 -4.58691 0.291992 -5.33301 0.291992c-53.2852 0 -96 -42.7148 -96 -96s42.7148 -96 96 -96h256
c41.4805 0 74.666 33.1855 74.666 74.667c0 41.4805 -33.1855 74.666 -74.666 74.666h-30.667l-3 17.792c-8.48145 50.4443 -51.9482 88.875 -105 88.875zM304.917 249.75l30.166 -30.167l-121.75 -121.75l-79.083 79.084l30.167 30.166l48.916 -48.916z" />
    <glyph glyph-name="new-view" unicode="&#xf157;" 
d="M106.667 384h298.666c23.5732 0 42.667 -19.0938 42.667 -42.667v-128v-37.958c-11.7764 10.6025 -26.709 16.625 -42.667 16.625v64h-298.666v-213.333h149.375c0 -15.3389 5.66016 -30.5283 16.583 -42.667h-165.958c-23.5732 0 -42.667 19.0938 -42.667 42.667
v298.666c0 23.5732 19.0938 42.667 42.667 42.667zM106.667 341.333v-42.666h298.666v42.666h-298.666zM149.333 213.333h42.667v-42.666h-42.667v42.666zM234.667 213.333h128v-37.958l-5.125 -4.70801h-122.875v42.666zM405 149.333
c0.0898438 0.00195312 0.236328 0.00292969 0.327148 0.00292969c4.87988 0 11.6396 -2.80078 15.0898 -6.25293l15.083 -15.083h33.833c11.7754 -0.000976562 21.332 -9.55859 21.334 -21.333v-33.834l15.083 -15.083c3.44727 -3.44922 6.24609 -10.2061 6.24609 -15.083
s-2.79883 -11.6348 -6.24609 -15.084l-15.083 -15.083v-33.833c-0.00195312 -11.7754 -9.55859 -21.332 -21.334 -21.334h-33.833l-15.083 -15.083c-3.44922 -3.44727 -10.207 -6.24609 -15.084 -6.24609s-11.6338 2.79883 -15.083 6.24609l-15.083 15.083h-33.834
c-11.7744 0.00195312 -21.332 9.55859 -21.333 21.334v33.833l-15.083 15.083c-3.44824 3.44922 -6.24609 10.207 -6.24609 15.084s2.79785 11.6338 6.24609 15.083l15.083 15.083v33.834c0.000976562 11.7744 9.55859 21.332 21.333 21.333h33.834l15.083 15.083
c3.37207 3.37402 9.98047 6.17383 14.75 6.25zM149.333 128h42.667v-42.667h-42.667v42.667zM234.667 128h46.5c-2.56055 -6.61328 -3.83398 -13.8662 -3.83398 -21.333v-16.209l-2.54102 -2.58301c-0.853516 -0.853516 -1.52734 -1.68848 -2.16699 -2.54199h-37.958v42.667
zM405.333 97.833l-6.25 -6.25c-3.44824 -3.44824 -10.2061 -6.24902 -15.083 -6.25h-21.333v-21.333c-0.000976562 -4.87695 -2.80176 -11.6348 -6.25 -15.083l-6.25 -6.25l6.25 -6.25c3.44824 -3.44922 6.24902 -10.2061 6.25 -15.084v-21.333h21.333
c4.87695 -0.000976562 11.6348 -2.80078 15.083 -6.25l6.25 -6.25l6.25 6.25c3.44922 3.44922 10.2061 6.24902 15.084 6.25h21.333v21.333c0.000976562 4.87793 2.80078 11.6348 6.25 15.084l6.25 6.25l-6.25 6.25c-3.44922 3.44824 -6.24902 10.2061 -6.25 15.083v21.333
h-21.333c-4.87793 0.000976562 -11.6348 2.80176 -15.084 6.25z" />
    <glyph glyph-name="smartphone-bug" unicode="&#xf29c;" 
d="M138.667 426.667h192c29.4395 0 53.333 -23.8936 53.333 -53.334v-138.666h-42.667v128h-213.333v-298.667h85.333v-106.667h-74.666c-29.4404 0 -53.334 23.8936 -53.334 53.334v362.666c0 29.4404 23.8936 53.334 53.334 53.334zM384.042 192
c42.6875 0 42.625 -42.667 42.625 -42.667c6.77246 0 15.6162 -8.21484 23.541 -21.333h61.792v-42.667h-45.875c1.37207 -6.81445 2.25293 -13.9326 2.66699 -21.333h43.208v-42.667h-44.792c-0.915039 -7.59766 -2.04199 -14.8193 -3.625 -21.333h48.417v-42.667h-69.625
c-13.9111 -14.5303 -33.2852 -21.333 -58.375 -21.333h-1.75c-21.748 0 -40.2051 6.94922 -54.208 21.333h-72.042v42.667h49.375c-1.79883 6.52734 -3.13184 13.748 -4.20801 21.333h-45.167v42.667h43.208c0.415039 7.40039 1.29199 14.5186 2.66699 21.333h-45.875
v42.667h61.833c7.94238 13.1182 16.8018 21.333 23.584 21.333c0 0 -0.0849609 42.667 42.625 42.667zM354.458 106.667c-5.46094 -8.91797 -13.125 -27.2822 -13.125 -50.792c0 -77.2266 29.7168 -77.208 40.917 -77.208h1.75c19.9893 0 42.667 -0.0185547 42.667 77.208
c0 23.5098 -7.64355 41.874 -13.084 50.792h-29.458h-29.667z" />
    <glyph glyph-name="carton" unicode="&#xf12f;" 
d="M106.667 384h298.666c23.3193 0 42.667 -19.3477 42.667 -42.667v-298.666c0 -23.3193 -19.3477 -42.667 -42.667 -42.667h-298.666c-23.3193 0 -42.667 19.3477 -42.667 42.667v298.666c0 23.3193 19.3477 42.667 42.667 42.667zM106.667 341.333v-298.666h298.666
v298.666h-298.666zM192 298.667h128v-42.667h-128v42.667zM277.333 170.667l21.334 -21.334v-64h-42.667v64zM341.333 170.667l21.334 -21.334v-64h-42.667v64z" />
    </font>
</defs>
</svg>
