<?xml version="1.0" standalone="no"?>
<!DOCTYPE svg PUBLIC "-//W3C//DTD SVG 20010904//EN"
 "http://www.w3.org/TR/2001/REC-SVG-20010904/DTD/svg10.dtd">
<svg version="1.0" xmlns="http://www.w3.org/2000/svg"
 width="225.000000pt" height="225.000000pt" viewBox="0 0 225.000000 225.000000"
 preserveAspectRatio="xMidYMid meet">
<metadata>
Created by potrace 1.11, written by Peter Selinger 2001-2013
</metadata>
<g transform="translate(0.000000,225.000000) scale(0.100000,-0.100000)"
fill="#000000" stroke="none">
<path d="M41 2190 c24 -34 93 -124 153 -199 578 -723 1190 -1214 1766 -1417
115 -40 156 -45 50 -5 -106 40 -239 109 -350 181 -354 232 -734 649 -996 1092
l-53 90 -73 25 c-97 33 -279 127 -408 211 -58 37 -111 72 -119 77 -8 5 5 -20
30 -55z"/>
<path d="M2145 2158 c-119 -102 -298 -205 -450 -259 -63 -23 -63 -24 -125
-122 -83 -133 -159 -278 -220 -421 -75 -174 -76 -160 16 -244 l78 -71 81 167
c165 337 373 651 602 908 46 52 83 94 81 94 -2 -1 -30 -24 -63 -52z"/>
<path d="M712 1233 c132 -288 337 -886 399 -1165 6 -32 15 -58 18 -58 4 0 15
48 24 106 24 139 86 379 137 533 23 68 38 127 33 131 -4 4 -37 28 -73 54 -46
33 -66 42 -71 34 -5 -10 -47 -200 -50 -227 0 -3 -10 32 -23 79 -12 47 -36 129
-52 184 l-29 98 -80 71 c-44 38 -122 110 -173 158 -51 49 -94 89 -96 89 -3 0
13 -39 36 -87z"/>
</g>
</svg>
